<svg xmlns="http://www.w3.org/2000/svg" width="22" height="23" viewBox="0 0 22 23" fill="none">
  <mask id="path-1-inside-1_1463_1457" fill="white">
    <path d="M12.3667 4.93323L11.3896 5.88505L16.5689 11.0828H2.8006V12.4494H16.5689L11.3896 17.624L12.3667 18.599L19.1996 11.7661L12.3667 4.93323Z"/>
  </mask>
  <path d="M12.3667 4.93323L11.3896 5.88505L16.5689 11.0828H2.8006V12.4494H16.5689L11.3896 17.624L12.3667 18.599L19.1996 11.7661L12.3667 4.93323Z" fill="black"/>
  <path d="M12.3667 4.93323L13.471 3.82886L12.381 2.73888L11.2769 3.81449L12.3667 4.93323ZM11.3896 5.88505L10.2998 4.76631L9.16827 5.86852L10.2832 6.98745L11.3896 5.88505ZM16.5689 11.0828V12.6446H20.33L17.6752 9.98044L16.5689 11.0828ZM2.8006 11.0828V9.52103H1.23879V11.0828H2.8006ZM2.8006 12.4494H1.23879V14.0112H2.8006V12.4494ZM16.5689 12.4494L17.6727 13.5543L20.3419 10.8876H16.5689V12.4494ZM11.3896 17.624L10.2857 16.5191L9.17916 17.6246L10.2864 18.7295L11.3896 17.624ZM12.3667 18.599L11.2635 19.7046L12.3678 20.8066L13.471 19.7034L12.3667 18.599ZM19.1996 11.7661L20.3039 12.8705L21.4083 11.7661L20.3039 10.6618L19.1996 11.7661ZM11.2769 3.81449L10.2998 4.76631L12.4794 7.00379L13.4565 6.05197L11.2769 3.81449ZM10.2832 6.98745L15.4626 12.1852L17.6752 9.98044L12.4959 4.78265L10.2832 6.98745ZM16.5689 9.52103H2.8006V12.6446H16.5689V9.52103ZM1.23879 11.0828V12.4494H4.3624V11.0828H1.23879ZM2.8006 14.0112H16.5689V10.8876H2.8006V14.0112ZM15.465 11.3445L10.2857 16.5191L12.4934 18.7289L17.6727 13.5543L15.465 11.3445ZM10.2864 18.7295L11.2635 19.7046L13.4699 17.4935L12.4928 16.5185L10.2864 18.7295ZM13.471 19.7034L20.3039 12.8705L18.0952 10.6618L11.2623 17.4947L13.471 19.7034ZM20.3039 10.6618L13.471 3.82886L11.2623 6.03759L18.0952 12.8705L20.3039 10.6618Z" fill="#0D1B2E" mask="url(#path-1-inside-1_1463_1457)"/>
</svg>