<svg xmlns="http://www.w3.org/2000/svg" width="1043" height="594" viewBox="0 0 1043 594" fill="none">
  <g opacity="0.6">
    <mask id="path-1-inside-1_892_42843" fill="white">
      <path d="M1043 658L-7 658L-7 0L1043 0L1043 658ZM-5.6418 656.641L1041.64 656.641L1041.64 1.3654L-5.6418 1.3654L-5.6418 656.641Z"/>
      <path d="M1042.32 623.809L-6.3209 623.809V625.168L1042.32 625.168V623.809Z"/>
      <path d="M1042.32 590.978L-6.3209 590.978V592.337L1042.32 592.337V590.978Z"/>
      <path d="M1042.32 558.146L-6.3209 558.146V559.505L1042.32 559.505V558.146Z"/>
      <path d="M1042.32 525.314L-6.3209 525.314L-6.3209 526.673L1042.32 526.673V525.314Z"/>
      <path d="M1042.32 492.482L-6.3209 492.482L-6.3209 493.841L1042.32 493.841V492.482Z"/>
      <path d="M1042.32 459.651L-6.3209 459.651V461.01L1042.32 461.01V459.651Z"/>
      <path d="M1042.32 426.819L-6.3209 426.819V428.178L1042.32 428.178V426.819Z"/>
      <path d="M1042.32 393.987L-6.3209 393.987L-6.3209 395.346L1042.32 395.346V393.987Z"/>
      <path d="M1042.32 361.155L-6.3209 361.155L-6.3209 362.514L1042.32 362.514V361.155Z"/>
      <path d="M1042.32 328.324L-6.3209 328.324V329.683L1042.32 329.683V328.324Z"/>
      <path d="M1042.32 295.492L-6.3209 295.492V296.851L1042.32 296.851V295.492Z"/>
      <path d="M1042.32 262.66L-6.3209 262.66V264.019L1042.32 264.019V262.66Z"/>
      <path d="M1042.32 229.829L-6.3209 229.829V231.188L1042.32 231.188V229.829Z"/>
      <path d="M1042.32 196.997L-6.3209 196.997L-6.3209 198.356L1042.32 198.356V196.997Z"/>
      <path d="M1042.32 164.165L-6.3209 164.165V165.524L1042.32 165.524V164.165Z"/>
      <path d="M1042.32 131.333L-6.3209 131.333V132.692L1042.32 132.692V131.333Z"/>
      <path d="M1042.32 98.5017L-6.3209 98.5017V99.8606L1042.32 99.8606V98.5017Z"/>
      <path d="M1042.32 65.6699L-6.3209 65.6699L-6.3209 67.0289L1042.32 67.0289V65.6699Z"/>
      <path d="M1042.32 32.8382L-6.3209 32.8382V34.1971L1042.32 34.1971V32.8382Z"/>
      <path d="M1011.22 0.685939L1009.87 0.685939L1009.87 657.321H1011.22L1011.22 0.685939Z"/>
      <path d="M979.447 0.685939L978.089 0.685939L978.089 657.321H979.447L979.447 0.685939Z"/>
      <path d="M947.67 0.685939L946.312 0.685939L946.312 657.321H947.67L947.67 0.685939Z"/>
      <path d="M915.893 0.685939L914.535 0.685939L914.535 657.321H915.893L915.893 0.685939Z"/>
      <path d="M884.113 0.685939L882.755 0.685939L882.755 657.321H884.113L884.113 0.685939Z"/>
      <path d="M852.336 0.685939L850.978 0.685939L850.978 657.321H852.336L852.336 0.685939Z"/>
      <path d="M820.56 0.685939L819.202 0.685939L819.202 657.321H820.56L820.56 0.685939Z"/>
      <path d="M788.783 0.685939L787.425 0.685939L787.425 657.321H788.783L788.783 0.685939Z"/>
      <path d="M757.006 0.685939L755.648 0.685939L755.648 657.321H757.006L757.006 0.685939Z"/>
      <path d="M725.23 0.685939L723.871 0.685939L723.871 657.321H725.23L725.23 0.685939Z"/>
      <path d="M693.453 0.685939L692.095 0.685939L692.095 657.321H693.453L693.453 0.685939Z"/>
      <path d="M661.676 0.685939L660.318 0.685939L660.318 657.321H661.676L661.676 0.685939Z"/>
      <path d="M629.899 0.685939L628.541 0.685939L628.541 657.321H629.899L629.899 0.685939Z"/>
      <path d="M598.123 0.685939L596.764 0.685939L596.764 657.321H598.123L598.123 0.685939Z"/>
      <path d="M566.346 0.685939L564.988 0.685939L564.988 657.321H566.346L566.346 0.685939Z"/>
      <path d="M534.569 0.685939L533.211 0.685939L533.211 657.321H534.569L534.569 0.685939Z"/>
      <path d="M502.789 0.685939L501.431 0.685939L501.431 657.321H502.789L502.789 0.685939Z"/>
      <path d="M471.012 0.685939L469.654 0.685939L469.654 657.321H471.012L471.012 0.685939Z"/>
      <path d="M439.236 0.685939L437.878 0.685939L437.878 657.321H439.236L439.236 0.685939Z"/>
      <path d="M407.459 0.685939L406.101 0.685939L406.101 657.321H407.459L407.459 0.685939Z"/>
      <path d="M375.682 0.685939L374.324 0.685939L374.324 657.321H375.682L375.682 0.685939Z"/>
      <path d="M343.905 0.685939L342.547 0.685939L342.547 657.321H343.905L343.905 0.685939Z"/>
      <path d="M312.129 0.685939L310.771 0.685939L310.771 657.321H312.129L312.129 0.685939Z"/>
      <path d="M280.352 0.685939L278.994 0.685939L278.994 657.321H280.352L280.352 0.685939Z"/>
      <path d="M248.575 0.685939L247.217 0.685939L247.217 657.321H248.575L248.575 0.685939Z"/>
      <path d="M216.799 0.685939L215.44 0.685939L215.44 657.321H216.799L216.799 0.685939Z"/>
      <path d="M185.022 0.685939L183.664 0.685939L183.664 657.321H185.022L185.022 0.685939Z"/>
      <path d="M153.245 0.685939L151.887 0.685939L151.887 657.321H153.245L153.245 0.685939Z"/>
      <path d="M121.468 0.685939L120.11 0.685939L120.11 657.321H121.468L121.468 0.685939Z"/>
      <path d="M89.6884 0.685939L88.3302 0.685939L88.3302 657.321H89.6884L89.6884 0.685939Z"/>
      <path d="M57.9116 0.685939L56.5535 0.685939L56.5535 657.321H57.9116L57.9116 0.685939Z"/>
      <path d="M26.1349 0.685939L24.7768 0.685939L24.7768 657.321H26.1349L26.1349 0.685939Z"/>
    </mask>
    <path d="M1043 658L-7 658L-7 0L1043 0L1043 658ZM-5.6418 656.641L1041.64 656.641L1041.64 1.3654L-5.6418 1.3654L-5.6418 656.641Z" stroke="url(#paint0_radial_892_42843)" stroke-width="2" mask="url(#path-1-inside-1_892_42843)"/>
    <path d="M1042.32 623.809L-6.3209 623.809V625.168L1042.32 625.168V623.809Z" stroke="url(#paint1_radial_892_42843)" stroke-width="2" mask="url(#path-1-inside-1_892_42843)"/>
    <path d="M1042.32 590.978L-6.3209 590.978V592.337L1042.32 592.337V590.978Z" stroke="url(#paint2_radial_892_42843)" stroke-width="2" mask="url(#path-1-inside-1_892_42843)"/>
    <path d="M1042.32 558.146L-6.3209 558.146V559.505L1042.32 559.505V558.146Z" stroke="url(#paint3_radial_892_42843)" stroke-width="2" mask="url(#path-1-inside-1_892_42843)"/>
    <path d="M1042.32 525.314L-6.3209 525.314L-6.3209 526.673L1042.32 526.673V525.314Z" stroke="url(#paint4_radial_892_42843)" stroke-width="2" mask="url(#path-1-inside-1_892_42843)"/>
    <path d="M1042.32 492.482L-6.3209 492.482L-6.3209 493.841L1042.32 493.841V492.482Z" stroke="url(#paint5_radial_892_42843)" stroke-width="2" mask="url(#path-1-inside-1_892_42843)"/>
    <path d="M1042.32 459.651L-6.3209 459.651V461.01L1042.32 461.01V459.651Z" stroke="url(#paint6_radial_892_42843)" stroke-width="2" mask="url(#path-1-inside-1_892_42843)"/>
    <path d="M1042.32 426.819L-6.3209 426.819V428.178L1042.32 428.178V426.819Z" stroke="url(#paint7_radial_892_42843)" stroke-width="2" mask="url(#path-1-inside-1_892_42843)"/>
    <path d="M1042.32 393.987L-6.3209 393.987L-6.3209 395.346L1042.32 395.346V393.987Z" stroke="url(#paint8_radial_892_42843)" stroke-width="2" mask="url(#path-1-inside-1_892_42843)"/>
    <path d="M1042.32 361.155L-6.3209 361.155L-6.3209 362.514L1042.32 362.514V361.155Z" stroke="url(#paint9_radial_892_42843)" stroke-width="2" mask="url(#path-1-inside-1_892_42843)"/>
    <path d="M1042.32 328.324L-6.3209 328.324V329.683L1042.32 329.683V328.324Z" stroke="url(#paint10_radial_892_42843)" stroke-width="2" mask="url(#path-1-inside-1_892_42843)"/>
    <path d="M1042.32 295.492L-6.3209 295.492V296.851L1042.32 296.851V295.492Z" stroke="url(#paint11_radial_892_42843)" stroke-width="2" mask="url(#path-1-inside-1_892_42843)"/>
    <path d="M1042.32 262.66L-6.3209 262.66V264.019L1042.32 264.019V262.66Z" stroke="url(#paint12_radial_892_42843)" stroke-width="2" mask="url(#path-1-inside-1_892_42843)"/>
    <path d="M1042.32 229.829L-6.3209 229.829V231.188L1042.32 231.188V229.829Z" stroke="url(#paint13_radial_892_42843)" stroke-width="2" mask="url(#path-1-inside-1_892_42843)"/>
    <path d="M1042.32 196.997L-6.3209 196.997L-6.3209 198.356L1042.32 198.356V196.997Z" stroke="url(#paint14_radial_892_42843)" stroke-width="2" mask="url(#path-1-inside-1_892_42843)"/>
    <path d="M1042.32 164.165L-6.3209 164.165V165.524L1042.32 165.524V164.165Z" stroke="url(#paint15_radial_892_42843)" stroke-width="2" mask="url(#path-1-inside-1_892_42843)"/>
    <path d="M1042.32 131.333L-6.3209 131.333V132.692L1042.32 132.692V131.333Z" stroke="url(#paint16_radial_892_42843)" stroke-width="2" mask="url(#path-1-inside-1_892_42843)"/>
    <path d="M1042.32 98.5017L-6.3209 98.5017V99.8606L1042.32 99.8606V98.5017Z" stroke="url(#paint17_radial_892_42843)" stroke-width="2" mask="url(#path-1-inside-1_892_42843)"/>
    <path d="M1042.32 65.6699L-6.3209 65.6699L-6.3209 67.0289L1042.32 67.0289V65.6699Z" stroke="url(#paint18_radial_892_42843)" stroke-width="2" mask="url(#path-1-inside-1_892_42843)"/>
    <path d="M1042.32 32.8382L-6.3209 32.8382V34.1971L1042.32 34.1971V32.8382Z" stroke="url(#paint19_radial_892_42843)" stroke-width="2" mask="url(#path-1-inside-1_892_42843)"/>
    <path d="M1011.22 0.685939L1009.87 0.685939L1009.87 657.321H1011.22L1011.22 0.685939Z" stroke="url(#paint20_radial_892_42843)" stroke-width="2" mask="url(#path-1-inside-1_892_42843)"/>
    <path d="M979.447 0.685939L978.089 0.685939L978.089 657.321H979.447L979.447 0.685939Z" stroke="url(#paint21_radial_892_42843)" stroke-width="2" mask="url(#path-1-inside-1_892_42843)"/>
    <path d="M947.67 0.685939L946.312 0.685939L946.312 657.321H947.67L947.67 0.685939Z" stroke="url(#paint22_radial_892_42843)" stroke-width="2" mask="url(#path-1-inside-1_892_42843)"/>
    <path d="M915.893 0.685939L914.535 0.685939L914.535 657.321H915.893L915.893 0.685939Z" stroke="url(#paint23_radial_892_42843)" stroke-width="2" mask="url(#path-1-inside-1_892_42843)"/>
    <path d="M884.113 0.685939L882.755 0.685939L882.755 657.321H884.113L884.113 0.685939Z" stroke="url(#paint24_radial_892_42843)" stroke-width="2" mask="url(#path-1-inside-1_892_42843)"/>
    <path d="M852.336 0.685939L850.978 0.685939L850.978 657.321H852.336L852.336 0.685939Z" stroke="url(#paint25_radial_892_42843)" stroke-width="2" mask="url(#path-1-inside-1_892_42843)"/>
    <path d="M820.56 0.685939L819.202 0.685939L819.202 657.321H820.56L820.56 0.685939Z" stroke="url(#paint26_radial_892_42843)" stroke-width="2" mask="url(#path-1-inside-1_892_42843)"/>
    <path d="M788.783 0.685939L787.425 0.685939L787.425 657.321H788.783L788.783 0.685939Z" stroke="url(#paint27_radial_892_42843)" stroke-width="2" mask="url(#path-1-inside-1_892_42843)"/>
    <path d="M757.006 0.685939L755.648 0.685939L755.648 657.321H757.006L757.006 0.685939Z" stroke="url(#paint28_radial_892_42843)" stroke-width="2" mask="url(#path-1-inside-1_892_42843)"/>
    <path d="M725.23 0.685939L723.871 0.685939L723.871 657.321H725.23L725.23 0.685939Z" stroke="url(#paint29_radial_892_42843)" stroke-width="2" mask="url(#path-1-inside-1_892_42843)"/>
    <path d="M693.453 0.685939L692.095 0.685939L692.095 657.321H693.453L693.453 0.685939Z" stroke="url(#paint30_radial_892_42843)" stroke-width="2" mask="url(#path-1-inside-1_892_42843)"/>
    <path d="M661.676 0.685939L660.318 0.685939L660.318 657.321H661.676L661.676 0.685939Z" stroke="url(#paint31_radial_892_42843)" stroke-width="2" mask="url(#path-1-inside-1_892_42843)"/>
    <path d="M629.899 0.685939L628.541 0.685939L628.541 657.321H629.899L629.899 0.685939Z" stroke="url(#paint32_radial_892_42843)" stroke-width="2" mask="url(#path-1-inside-1_892_42843)"/>
    <path d="M598.123 0.685939L596.764 0.685939L596.764 657.321H598.123L598.123 0.685939Z" stroke="url(#paint33_radial_892_42843)" stroke-width="2" mask="url(#path-1-inside-1_892_42843)"/>
    <path d="M566.346 0.685939L564.988 0.685939L564.988 657.321H566.346L566.346 0.685939Z" stroke="url(#paint34_radial_892_42843)" stroke-width="2" mask="url(#path-1-inside-1_892_42843)"/>
    <path d="M534.569 0.685939L533.211 0.685939L533.211 657.321H534.569L534.569 0.685939Z" stroke="url(#paint35_radial_892_42843)" stroke-width="2" mask="url(#path-1-inside-1_892_42843)"/>
    <path d="M502.789 0.685939L501.431 0.685939L501.431 657.321H502.789L502.789 0.685939Z" stroke="url(#paint36_radial_892_42843)" stroke-width="2" mask="url(#path-1-inside-1_892_42843)"/>
    <path d="M471.012 0.685939L469.654 0.685939L469.654 657.321H471.012L471.012 0.685939Z" stroke="url(#paint37_radial_892_42843)" stroke-width="2" mask="url(#path-1-inside-1_892_42843)"/>
    <path d="M439.236 0.685939L437.878 0.685939L437.878 657.321H439.236L439.236 0.685939Z" stroke="url(#paint38_radial_892_42843)" stroke-width="2" mask="url(#path-1-inside-1_892_42843)"/>
    <path d="M407.459 0.685939L406.101 0.685939L406.101 657.321H407.459L407.459 0.685939Z" stroke="url(#paint39_radial_892_42843)" stroke-width="2" mask="url(#path-1-inside-1_892_42843)"/>
    <path d="M375.682 0.685939L374.324 0.685939L374.324 657.321H375.682L375.682 0.685939Z" stroke="url(#paint40_radial_892_42843)" stroke-width="2" mask="url(#path-1-inside-1_892_42843)"/>
    <path d="M343.905 0.685939L342.547 0.685939L342.547 657.321H343.905L343.905 0.685939Z" stroke="url(#paint41_radial_892_42843)" stroke-width="2" mask="url(#path-1-inside-1_892_42843)"/>
    <path d="M312.129 0.685939L310.771 0.685939L310.771 657.321H312.129L312.129 0.685939Z" stroke="url(#paint42_radial_892_42843)" stroke-width="2" mask="url(#path-1-inside-1_892_42843)"/>
    <path d="M280.352 0.685939L278.994 0.685939L278.994 657.321H280.352L280.352 0.685939Z" stroke="url(#paint43_radial_892_42843)" stroke-width="2" mask="url(#path-1-inside-1_892_42843)"/>
    <path d="M248.575 0.685939L247.217 0.685939L247.217 657.321H248.575L248.575 0.685939Z" stroke="url(#paint44_radial_892_42843)" stroke-width="2" mask="url(#path-1-inside-1_892_42843)"/>
    <path d="M216.799 0.685939L215.44 0.685939L215.44 657.321H216.799L216.799 0.685939Z" stroke="url(#paint45_radial_892_42843)" stroke-width="2" mask="url(#path-1-inside-1_892_42843)"/>
    <path d="M185.022 0.685939L183.664 0.685939L183.664 657.321H185.022L185.022 0.685939Z" stroke="url(#paint46_radial_892_42843)" stroke-width="2" mask="url(#path-1-inside-1_892_42843)"/>
    <path d="M153.245 0.685939L151.887 0.685939L151.887 657.321H153.245L153.245 0.685939Z" stroke="url(#paint47_radial_892_42843)" stroke-width="2" mask="url(#path-1-inside-1_892_42843)"/>
    <path d="M121.468 0.685939L120.11 0.685939L120.11 657.321H121.468L121.468 0.685939Z" stroke="url(#paint48_radial_892_42843)" stroke-width="2" mask="url(#path-1-inside-1_892_42843)"/>
    <path d="M89.6884 0.685939L88.3302 0.685939L88.3302 657.321H89.6884L89.6884 0.685939Z" stroke="url(#paint49_radial_892_42843)" stroke-width="2" mask="url(#path-1-inside-1_892_42843)"/>
    <path d="M57.9116 0.685939L56.5535 0.685939L56.5535 657.321H57.9116L57.9116 0.685939Z" stroke="url(#paint50_radial_892_42843)" stroke-width="2" mask="url(#path-1-inside-1_892_42843)"/>
    <path d="M26.1349 0.685939L24.7768 0.685939L24.7768 657.321H26.1349L26.1349 0.685939Z" stroke="url(#paint51_radial_892_42843)" stroke-width="2" mask="url(#path-1-inside-1_892_42843)"/>
  </g>
  <defs>
    <radialGradient id="paint0_radial_892_42843" cx="0" cy="0" r="1" gradientUnits="userSpaceOnUse" gradientTransform="translate(-130.92 783.809) rotate(-39.7621) scale(610.597 975.008)">
      <stop stop-color="#1E92E2"/>
      <stop offset="1" stop-color="#1E92E2" stop-opacity="0"/>
    </radialGradient>
    <radialGradient id="paint1_radial_892_42843" cx="0" cy="0" r="1" gradientUnits="userSpaceOnUse" gradientTransform="translate(-130.92 783.809) rotate(-39.7621) scale(610.597 975.008)">
      <stop stop-color="#1E92E2"/>
      <stop offset="1" stop-color="#1E92E2" stop-opacity="0"/>
    </radialGradient>
    <radialGradient id="paint2_radial_892_42843" cx="0" cy="0" r="1" gradientUnits="userSpaceOnUse" gradientTransform="translate(-130.92 783.809) rotate(-39.7621) scale(610.597 975.008)">
      <stop stop-color="#1E92E2"/>
      <stop offset="1" stop-color="#1E92E2" stop-opacity="0"/>
    </radialGradient>
    <radialGradient id="paint3_radial_892_42843" cx="0" cy="0" r="1" gradientUnits="userSpaceOnUse" gradientTransform="translate(-130.92 783.809) rotate(-39.7621) scale(610.597 975.008)">
      <stop stop-color="#1E92E2"/>
      <stop offset="1" stop-color="#1E92E2" stop-opacity="0"/>
    </radialGradient>
    <radialGradient id="paint4_radial_892_42843" cx="0" cy="0" r="1" gradientUnits="userSpaceOnUse" gradientTransform="translate(-130.92 783.809) rotate(-39.7621) scale(610.597 975.008)">
      <stop stop-color="#1E92E2"/>
      <stop offset="1" stop-color="#1E92E2" stop-opacity="0"/>
    </radialGradient>
    <radialGradient id="paint5_radial_892_42843" cx="0" cy="0" r="1" gradientUnits="userSpaceOnUse" gradientTransform="translate(-130.92 783.809) rotate(-39.7621) scale(610.597 975.008)">
      <stop stop-color="#1E92E2"/>
      <stop offset="1" stop-color="#1E92E2" stop-opacity="0"/>
    </radialGradient>
    <radialGradient id="paint6_radial_892_42843" cx="0" cy="0" r="1" gradientUnits="userSpaceOnUse" gradientTransform="translate(-130.92 783.809) rotate(-39.7621) scale(610.597 975.008)">
      <stop stop-color="#1E92E2"/>
      <stop offset="1" stop-color="#1E92E2" stop-opacity="0"/>
    </radialGradient>
    <radialGradient id="paint7_radial_892_42843" cx="0" cy="0" r="1" gradientUnits="userSpaceOnUse" gradientTransform="translate(-130.92 783.809) rotate(-39.7621) scale(610.597 975.008)">
      <stop stop-color="#1E92E2"/>
      <stop offset="1" stop-color="#1E92E2" stop-opacity="0"/>
    </radialGradient>
    <radialGradient id="paint8_radial_892_42843" cx="0" cy="0" r="1" gradientUnits="userSpaceOnUse" gradientTransform="translate(-130.92 783.809) rotate(-39.7621) scale(610.597 975.008)">
      <stop stop-color="#1E92E2"/>
      <stop offset="1" stop-color="#1E92E2" stop-opacity="0"/>
    </radialGradient>
    <radialGradient id="paint9_radial_892_42843" cx="0" cy="0" r="1" gradientUnits="userSpaceOnUse" gradientTransform="translate(-130.92 783.809) rotate(-39.7621) scale(610.597 975.008)">
      <stop stop-color="#1E92E2"/>
      <stop offset="1" stop-color="#1E92E2" stop-opacity="0"/>
    </radialGradient>
    <radialGradient id="paint10_radial_892_42843" cx="0" cy="0" r="1" gradientUnits="userSpaceOnUse" gradientTransform="translate(-130.92 783.809) rotate(-39.7621) scale(610.597 975.008)">
      <stop stop-color="#1E92E2"/>
      <stop offset="1" stop-color="#1E92E2" stop-opacity="0"/>
    </radialGradient>
    <radialGradient id="paint11_radial_892_42843" cx="0" cy="0" r="1" gradientUnits="userSpaceOnUse" gradientTransform="translate(-130.92 783.809) rotate(-39.7621) scale(610.597 975.008)">
      <stop stop-color="#1E92E2"/>
      <stop offset="1" stop-color="#1E92E2" stop-opacity="0"/>
    </radialGradient>
    <radialGradient id="paint12_radial_892_42843" cx="0" cy="0" r="1" gradientUnits="userSpaceOnUse" gradientTransform="translate(-130.92 783.809) rotate(-39.7621) scale(610.597 975.008)">
      <stop stop-color="#1E92E2"/>
      <stop offset="1" stop-color="#1E92E2" stop-opacity="0"/>
    </radialGradient>
    <radialGradient id="paint13_radial_892_42843" cx="0" cy="0" r="1" gradientUnits="userSpaceOnUse" gradientTransform="translate(-130.92 783.809) rotate(-39.7621) scale(610.597 975.008)">
      <stop stop-color="#1E92E2"/>
      <stop offset="1" stop-color="#1E92E2" stop-opacity="0"/>
    </radialGradient>
    <radialGradient id="paint14_radial_892_42843" cx="0" cy="0" r="1" gradientUnits="userSpaceOnUse" gradientTransform="translate(-130.92 783.809) rotate(-39.7621) scale(610.597 975.008)">
      <stop stop-color="#1E92E2"/>
      <stop offset="1" stop-color="#1E92E2" stop-opacity="0"/>
    </radialGradient>
    <radialGradient id="paint15_radial_892_42843" cx="0" cy="0" r="1" gradientUnits="userSpaceOnUse" gradientTransform="translate(-130.92 783.809) rotate(-39.7621) scale(610.597 975.008)">
      <stop stop-color="#1E92E2"/>
      <stop offset="1" stop-color="#1E92E2" stop-opacity="0"/>
    </radialGradient>
    <radialGradient id="paint16_radial_892_42843" cx="0" cy="0" r="1" gradientUnits="userSpaceOnUse" gradientTransform="translate(-130.92 783.809) rotate(-39.7621) scale(610.597 975.008)">
      <stop stop-color="#1E92E2"/>
      <stop offset="1" stop-color="#1E92E2" stop-opacity="0"/>
    </radialGradient>
    <radialGradient id="paint17_radial_892_42843" cx="0" cy="0" r="1" gradientUnits="userSpaceOnUse" gradientTransform="translate(-130.92 783.809) rotate(-39.7621) scale(610.597 975.008)">
      <stop stop-color="#1E92E2"/>
      <stop offset="1" stop-color="#1E92E2" stop-opacity="0"/>
    </radialGradient>
    <radialGradient id="paint18_radial_892_42843" cx="0" cy="0" r="1" gradientUnits="userSpaceOnUse" gradientTransform="translate(-130.92 783.809) rotate(-39.7621) scale(610.597 975.008)">
      <stop stop-color="#1E92E2"/>
      <stop offset="1" stop-color="#1E92E2" stop-opacity="0"/>
    </radialGradient>
    <radialGradient id="paint19_radial_892_42843" cx="0" cy="0" r="1" gradientUnits="userSpaceOnUse" gradientTransform="translate(-130.92 783.809) rotate(-39.7621) scale(610.597 975.008)">
      <stop stop-color="#1E92E2"/>
      <stop offset="1" stop-color="#1E92E2" stop-opacity="0"/>
    </radialGradient>
    <radialGradient id="paint20_radial_892_42843" cx="0" cy="0" r="1" gradientUnits="userSpaceOnUse" gradientTransform="translate(-130.92 783.809) rotate(-39.7621) scale(610.597 975.008)">
      <stop stop-color="#1E92E2"/>
      <stop offset="1" stop-color="#1E92E2" stop-opacity="0"/>
    </radialGradient>
    <radialGradient id="paint21_radial_892_42843" cx="0" cy="0" r="1" gradientUnits="userSpaceOnUse" gradientTransform="translate(-130.92 783.809) rotate(-39.7621) scale(610.597 975.008)">
      <stop stop-color="#1E92E2"/>
      <stop offset="1" stop-color="#1E92E2" stop-opacity="0"/>
    </radialGradient>
    <radialGradient id="paint22_radial_892_42843" cx="0" cy="0" r="1" gradientUnits="userSpaceOnUse" gradientTransform="translate(-130.92 783.809) rotate(-39.7621) scale(610.597 975.008)">
      <stop stop-color="#1E92E2"/>
      <stop offset="1" stop-color="#1E92E2" stop-opacity="0"/>
    </radialGradient>
    <radialGradient id="paint23_radial_892_42843" cx="0" cy="0" r="1" gradientUnits="userSpaceOnUse" gradientTransform="translate(-130.92 783.809) rotate(-39.7621) scale(610.597 975.008)">
      <stop stop-color="#1E92E2"/>
      <stop offset="1" stop-color="#1E92E2" stop-opacity="0"/>
    </radialGradient>
    <radialGradient id="paint24_radial_892_42843" cx="0" cy="0" r="1" gradientUnits="userSpaceOnUse" gradientTransform="translate(-130.92 783.809) rotate(-39.7621) scale(610.597 975.008)">
      <stop stop-color="#1E92E2"/>
      <stop offset="1" stop-color="#1E92E2" stop-opacity="0"/>
    </radialGradient>
    <radialGradient id="paint25_radial_892_42843" cx="0" cy="0" r="1" gradientUnits="userSpaceOnUse" gradientTransform="translate(-130.92 783.809) rotate(-39.7621) scale(610.597 975.008)">
      <stop stop-color="#1E92E2"/>
      <stop offset="1" stop-color="#1E92E2" stop-opacity="0"/>
    </radialGradient>
    <radialGradient id="paint26_radial_892_42843" cx="0" cy="0" r="1" gradientUnits="userSpaceOnUse" gradientTransform="translate(-130.92 783.809) rotate(-39.7621) scale(610.597 975.008)">
      <stop stop-color="#1E92E2"/>
      <stop offset="1" stop-color="#1E92E2" stop-opacity="0"/>
    </radialGradient>
    <radialGradient id="paint27_radial_892_42843" cx="0" cy="0" r="1" gradientUnits="userSpaceOnUse" gradientTransform="translate(-130.92 783.809) rotate(-39.7621) scale(610.597 975.008)">
      <stop stop-color="#1E92E2"/>
      <stop offset="1" stop-color="#1E92E2" stop-opacity="0"/>
    </radialGradient>
    <radialGradient id="paint28_radial_892_42843" cx="0" cy="0" r="1" gradientUnits="userSpaceOnUse" gradientTransform="translate(-130.92 783.809) rotate(-39.7621) scale(610.597 975.008)">
      <stop stop-color="#1E92E2"/>
      <stop offset="1" stop-color="#1E92E2" stop-opacity="0"/>
    </radialGradient>
    <radialGradient id="paint29_radial_892_42843" cx="0" cy="0" r="1" gradientUnits="userSpaceOnUse" gradientTransform="translate(-130.92 783.809) rotate(-39.7621) scale(610.597 975.008)">
      <stop stop-color="#1E92E2"/>
      <stop offset="1" stop-color="#1E92E2" stop-opacity="0"/>
    </radialGradient>
    <radialGradient id="paint30_radial_892_42843" cx="0" cy="0" r="1" gradientUnits="userSpaceOnUse" gradientTransform="translate(-130.92 783.809) rotate(-39.7621) scale(610.597 975.008)">
      <stop stop-color="#1E92E2"/>
      <stop offset="1" stop-color="#1E92E2" stop-opacity="0"/>
    </radialGradient>
    <radialGradient id="paint31_radial_892_42843" cx="0" cy="0" r="1" gradientUnits="userSpaceOnUse" gradientTransform="translate(-130.92 783.809) rotate(-39.7621) scale(610.597 975.008)">
      <stop stop-color="#1E92E2"/>
      <stop offset="1" stop-color="#1E92E2" stop-opacity="0"/>
    </radialGradient>
    <radialGradient id="paint32_radial_892_42843" cx="0" cy="0" r="1" gradientUnits="userSpaceOnUse" gradientTransform="translate(-130.92 783.809) rotate(-39.7621) scale(610.597 975.008)">
      <stop stop-color="#1E92E2"/>
      <stop offset="1" stop-color="#1E92E2" stop-opacity="0"/>
    </radialGradient>
    <radialGradient id="paint33_radial_892_42843" cx="0" cy="0" r="1" gradientUnits="userSpaceOnUse" gradientTransform="translate(-130.92 783.809) rotate(-39.7621) scale(610.597 975.008)">
      <stop stop-color="#1E92E2"/>
      <stop offset="1" stop-color="#1E92E2" stop-opacity="0"/>
    </radialGradient>
    <radialGradient id="paint34_radial_892_42843" cx="0" cy="0" r="1" gradientUnits="userSpaceOnUse" gradientTransform="translate(-130.92 783.809) rotate(-39.7621) scale(610.597 975.008)">
      <stop stop-color="#1E92E2"/>
      <stop offset="1" stop-color="#1E92E2" stop-opacity="0"/>
    </radialGradient>
    <radialGradient id="paint35_radial_892_42843" cx="0" cy="0" r="1" gradientUnits="userSpaceOnUse" gradientTransform="translate(-130.92 783.809) rotate(-39.7621) scale(610.597 975.008)">
      <stop stop-color="#1E92E2"/>
      <stop offset="1" stop-color="#1E92E2" stop-opacity="0"/>
    </radialGradient>
    <radialGradient id="paint36_radial_892_42843" cx="0" cy="0" r="1" gradientUnits="userSpaceOnUse" gradientTransform="translate(-130.92 783.809) rotate(-39.7621) scale(610.597 975.008)">
      <stop stop-color="#1E92E2"/>
      <stop offset="1" stop-color="#1E92E2" stop-opacity="0"/>
    </radialGradient>
    <radialGradient id="paint37_radial_892_42843" cx="0" cy="0" r="1" gradientUnits="userSpaceOnUse" gradientTransform="translate(-130.92 783.809) rotate(-39.7621) scale(610.597 975.008)">
      <stop stop-color="#1E92E2"/>
      <stop offset="1" stop-color="#1E92E2" stop-opacity="0"/>
    </radialGradient>
    <radialGradient id="paint38_radial_892_42843" cx="0" cy="0" r="1" gradientUnits="userSpaceOnUse" gradientTransform="translate(-130.92 783.809) rotate(-39.7621) scale(610.597 975.008)">
      <stop stop-color="#1E92E2"/>
      <stop offset="1" stop-color="#1E92E2" stop-opacity="0"/>
    </radialGradient>
    <radialGradient id="paint39_radial_892_42843" cx="0" cy="0" r="1" gradientUnits="userSpaceOnUse" gradientTransform="translate(-130.92 783.809) rotate(-39.7621) scale(610.597 975.008)">
      <stop stop-color="#1E92E2"/>
      <stop offset="1" stop-color="#1E92E2" stop-opacity="0"/>
    </radialGradient>
    <radialGradient id="paint40_radial_892_42843" cx="0" cy="0" r="1" gradientUnits="userSpaceOnUse" gradientTransform="translate(-130.92 783.809) rotate(-39.7621) scale(610.597 975.008)">
      <stop stop-color="#1E92E2"/>
      <stop offset="1" stop-color="#1E92E2" stop-opacity="0"/>
    </radialGradient>
    <radialGradient id="paint41_radial_892_42843" cx="0" cy="0" r="1" gradientUnits="userSpaceOnUse" gradientTransform="translate(-130.92 783.809) rotate(-39.7621) scale(610.597 975.008)">
      <stop stop-color="#1E92E2"/>
      <stop offset="1" stop-color="#1E92E2" stop-opacity="0"/>
    </radialGradient>
    <radialGradient id="paint42_radial_892_42843" cx="0" cy="0" r="1" gradientUnits="userSpaceOnUse" gradientTransform="translate(-130.92 783.809) rotate(-39.7621) scale(610.597 975.008)">
      <stop stop-color="#1E92E2"/>
      <stop offset="1" stop-color="#1E92E2" stop-opacity="0"/>
    </radialGradient>
    <radialGradient id="paint43_radial_892_42843" cx="0" cy="0" r="1" gradientUnits="userSpaceOnUse" gradientTransform="translate(-130.92 783.809) rotate(-39.7621) scale(610.597 975.008)">
      <stop stop-color="#1E92E2"/>
      <stop offset="1" stop-color="#1E92E2" stop-opacity="0"/>
    </radialGradient>
    <radialGradient id="paint44_radial_892_42843" cx="0" cy="0" r="1" gradientUnits="userSpaceOnUse" gradientTransform="translate(-130.92 783.809) rotate(-39.7621) scale(610.597 975.008)">
      <stop stop-color="#1E92E2"/>
      <stop offset="1" stop-color="#1E92E2" stop-opacity="0"/>
    </radialGradient>
    <radialGradient id="paint45_radial_892_42843" cx="0" cy="0" r="1" gradientUnits="userSpaceOnUse" gradientTransform="translate(-130.92 783.809) rotate(-39.7621) scale(610.597 975.008)">
      <stop stop-color="#1E92E2"/>
      <stop offset="1" stop-color="#1E92E2" stop-opacity="0"/>
    </radialGradient>
    <radialGradient id="paint46_radial_892_42843" cx="0" cy="0" r="1" gradientUnits="userSpaceOnUse" gradientTransform="translate(-130.92 783.809) rotate(-39.7621) scale(610.597 975.008)">
      <stop stop-color="#1E92E2"/>
      <stop offset="1" stop-color="#1E92E2" stop-opacity="0"/>
    </radialGradient>
    <radialGradient id="paint47_radial_892_42843" cx="0" cy="0" r="1" gradientUnits="userSpaceOnUse" gradientTransform="translate(-130.92 783.809) rotate(-39.7621) scale(610.597 975.008)">
      <stop stop-color="#1E92E2"/>
      <stop offset="1" stop-color="#1E92E2" stop-opacity="0"/>
    </radialGradient>
    <radialGradient id="paint48_radial_892_42843" cx="0" cy="0" r="1" gradientUnits="userSpaceOnUse" gradientTransform="translate(-130.92 783.809) rotate(-39.7621) scale(610.597 975.008)">
      <stop stop-color="#1E92E2"/>
      <stop offset="1" stop-color="#1E92E2" stop-opacity="0"/>
    </radialGradient>
    <radialGradient id="paint49_radial_892_42843" cx="0" cy="0" r="1" gradientUnits="userSpaceOnUse" gradientTransform="translate(-130.92 783.809) rotate(-39.7621) scale(610.597 975.008)">
      <stop stop-color="#1E92E2"/>
      <stop offset="1" stop-color="#1E92E2" stop-opacity="0"/>
    </radialGradient>
    <radialGradient id="paint50_radial_892_42843" cx="0" cy="0" r="1" gradientUnits="userSpaceOnUse" gradientTransform="translate(-130.92 783.809) rotate(-39.7621) scale(610.597 975.008)">
      <stop stop-color="#1E92E2"/>
      <stop offset="1" stop-color="#1E92E2" stop-opacity="0"/>
    </radialGradient>
    <radialGradient id="paint51_radial_892_42843" cx="0" cy="0" r="1" gradientUnits="userSpaceOnUse" gradientTransform="translate(-130.92 783.809) rotate(-39.7621) scale(610.597 975.008)">
      <stop stop-color="#1E92E2"/>
      <stop offset="1" stop-color="#1E92E2" stop-opacity="0"/>
    </radialGradient>
  </defs>
</svg>