<svg xmlns="http://www.w3.org/2000/svg" width="43" height="43" viewBox="0 0 43 43" fill="none">
  <path d="M16.6963 21.1773L4.98101 32.8926L4.85742 32.769L17.5008 20.1258L17.5012 20.1254C17.5092 20.1173 17.5188 20.1109 17.5293 20.1066C17.5398 20.1022 17.5511 20.1 17.5625 20.1C17.5739 20.1 17.5852 20.1022 17.5957 20.1066C17.6062 20.1109 17.6158 20.1173 17.6238 20.1254L17.6242 20.1258L23.2588 25.7602L24.125 26.6264L24.9912 25.7602L36.2602 14.4912L38.3514 12.4H35.394H27.975V12.225H38.65V22.9H38.475V15.481V12.5236L36.3838 14.6148L24.1867 26.8117L24.1863 26.8121C24.1783 26.8202 24.1687 26.8266 24.1582 26.8309C24.1477 26.8353 24.1364 26.8375 24.125 26.8375C24.1136 26.8375 24.1023 26.8353 24.0918 26.8309C24.0813 26.8266 24.0717 26.8202 24.0637 26.8121L24.0633 26.8117L18.4287 21.1773L17.5625 20.3111L16.6963 21.1773Z" stroke="#24A7FF" stroke-width="2.45"/>
</svg>