<svg xmlns="http://www.w3.org/2000/svg" width="43" height="43" viewBox="0 0 43 43" fill="none">
  <path d="M32.0169 13.7663L32.1427 14.8501H33.2338H33.3125C34.7281 14.8501 36.0857 15.4124 37.0867 16.4134C38.0877 17.4144 38.65 18.772 38.65 20.1876C38.65 21.6032 38.0877 22.9608 37.0867 23.9618C36.0857 24.9628 34.7281 25.5251 33.3125 25.5251H32.0875V26.7501V28.0601C32.0802 29.649 31.5042 31.1829 30.4637 32.3839C29.4227 33.5856 27.9856 34.3745 26.4128 34.6077L25.5875 34.7301L25.3991 35.5429C25.1779 36.4972 24.6163 37.3381 23.8195 37.908C23.0226 38.4778 22.0453 38.7375 21.0707 38.6384C20.0961 38.5392 19.1911 38.088 18.5254 37.3694C17.8596 36.6507 17.4788 35.7139 17.4543 34.7346C17.4299 33.7553 17.7634 32.8006 18.3924 32.0496C19.0214 31.2986 19.9027 30.8028 20.8711 30.655C21.8396 30.5073 22.8286 30.7178 23.6529 31.2472C24.4772 31.7765 25.0802 32.5883 25.3488 33.5304L25.6624 34.6301L26.7811 34.3928C28.2319 34.0851 29.5331 33.2886 30.4672 32.1365C31.4012 30.9844 31.9114 29.5466 31.9125 28.0635V28.0626V14.9376C31.9125 12.176 30.8155 9.52757 28.8627 7.57485C26.91 5.62213 24.2616 4.5251 21.5 4.5251C18.7384 4.5251 16.09 5.62213 14.1373 7.57485C12.1845 9.52757 11.0875 12.176 11.0875 14.9376V25.5251H9.6875C8.27191 25.5251 6.91429 24.9628 5.91332 23.9618C4.91234 22.9608 4.35 21.6032 4.35 20.1876C4.35 18.772 4.91234 17.4144 5.91332 16.4134C6.91429 15.4124 8.27191 14.8501 9.6875 14.8501H9.76625H10.8573L10.9831 13.7663C11.2824 11.187 12.5192 8.80761 14.4582 7.08058C16.3973 5.35355 18.9034 4.39932 21.5 4.39932C24.0966 4.39932 26.6027 5.35355 28.5418 7.08058C30.4808 8.80761 31.7176 11.187 32.0169 13.7663ZM10.9125 16.2501V15.0251H9.6875C8.31832 15.0251 7.00522 15.569 6.03706 16.5372C5.0689 17.5053 4.525 18.8184 4.525 20.1876C4.525 21.5568 5.0689 22.8699 6.03706 23.838C7.00522 24.8062 8.31832 25.3501 9.6875 25.3501H10.9125V24.1251V16.2501ZM32.0875 24.1251V25.3501H33.3125C34.6817 25.3501 35.9948 24.8062 36.9629 23.838C37.9311 22.8699 38.475 21.5568 38.475 20.1876C38.475 18.8184 37.9311 17.5053 36.9629 16.5372C35.9948 15.569 34.6817 15.0251 33.3125 15.0251H32.0875V16.2501V24.1251ZM19.3611 37.8263C19.9942 38.2493 20.7385 38.4751 21.5 38.4751C22.5211 38.4751 23.5003 38.0695 24.2224 37.3475C24.9444 36.6255 25.35 35.6462 25.35 34.6251C25.35 33.8636 25.1242 33.1193 24.7012 32.4862C24.2781 31.853 23.6768 31.3596 22.9733 31.0682C22.2698 30.7768 21.4957 30.7005 20.7489 30.8491C20.0021 30.9976 19.3161 31.3643 18.7776 31.9027C18.2392 32.4412 17.8725 33.1272 17.724 33.874C17.5754 34.6208 17.6517 35.3949 17.9431 36.0984C18.2345 36.8019 18.7279 37.4032 19.3611 37.8263Z" stroke="#24A7FF" stroke-width="2.45"/>
</svg>