<svg width="118" height="24" viewBox="0 0 118 24" fill="none" xmlns="http://www.w3.org/2000/svg">
<path d="M11.8 3.65527L9.11553 9.09507L3.11523 9.96237L7.45763 14.1986L6.43103 20.1753L11.8 17.3551L17.169 20.1753L16.1424 14.1986L20.4848 9.96827L14.4845 9.09507L11.8 3.65527Z" fill="#FDC854"/>
<g clip-path="url(#clip0_892_43682)">
<path d="M35.4 3.65515L32.7155 9.09495L26.7152 9.96225L31.0576 14.1985L30.031 20.1751L35.4 17.3549L40.769 20.1751L39.7424 14.1985L44.0848 9.96815L38.0845 9.09495L35.4 3.65515Z" fill="#FDC854"/>
</g>
<path d="M59 3.65527L56.3155 9.09507L50.3152 9.96237L54.6576 14.1986L53.631 20.1753L59 17.3551L64.369 20.1753L63.3424 14.1986L67.6848 9.96827L61.6845 9.09507L59 3.65527Z" fill="#FDC854"/>
<g clip-path="url(#clip1_892_43682)">
<path d="M82.6 3.65527L79.9155 9.09507L73.9152 9.96237L78.2576 14.1986L77.231 20.1753L82.6 17.3551L87.969 20.1753L86.9424 14.1986L91.2848 9.96827L85.2845 9.09507L82.6 3.65527Z" fill="#FDC854"/>
</g>
<path d="M106.2 3.65527L103.516 9.09507L97.5153 9.96237L101.858 14.1986L100.831 20.1753L106.2 17.3551L111.569 20.1753L110.542 14.1986L114.885 9.96827L108.885 9.09507L106.2 3.65527Z" fill="#FDC854"/>
<defs>
<clipPath id="clip0_892_43682">
<rect width="18.88" height="18.88" fill="white" transform="translate(25.96 2.47528)"/>
</clipPath>
<clipPath id="clip1_892_43682">
<rect width="18.88" height="18.88" fill="white" transform="translate(73.16 2.47528)"/>
</clipPath>
</defs>
</svg>
