<svg xmlns="http://www.w3.org/2000/svg" width="1039" height="561" viewBox="0 0 1039 561" fill="none">
  <g opacity="0.3">
    <mask id="path-1-inside-1_892_42844" fill="white">
      <path d="M5.33998e-06 -128.646L1100.89 -128.646L1100.89 560.856L6.56182e-05 560.857L5.33998e-06 -128.646ZM1099.47 -127.222L1.42396 -127.222L1.42402 559.426L1099.47 559.426L1099.47 -127.222Z"/>
      <path d="M0.712045 -92.8182L1100.18 -92.8183L1100.18 -94.2423L0.712044 -94.2422L0.712045 -92.8182Z"/>
      <path d="M0.712048 -58.4146L1100.18 -58.4147L1100.18 -59.8387L0.712047 -59.8386L0.712048 -58.4146Z"/>
      <path d="M0.712051 -24.011L1100.18 -24.0111L1100.18 -25.4351L0.71205 -25.435L0.712051 -24.011Z"/>
      <path d="M0.712054 10.3925L1100.18 10.3924L1100.18 8.96848L0.712053 8.96857L0.712054 10.3925Z"/>
      <path d="M0.712057 44.7961L1100.18 44.796L1100.18 43.372L0.712056 43.3721L0.712057 44.7961Z"/>
      <path d="M0.71206 79.1997L1100.18 79.1996L1100.18 77.7756L0.712059 77.7757L0.71206 79.1997Z"/>
      <path d="M0.712063 113.603L1100.18 113.603L1100.18 112.179L0.712062 112.179L0.712063 113.603Z"/>
      <path d="M0.712066 148.007L1100.18 148.007L1100.18 146.583L0.712065 146.583L0.712066 148.007Z"/>
      <path d="M0.712069 182.41L1100.18 182.41L1100.18 180.986L0.712068 180.986L0.712069 182.41Z"/>
      <path d="M0.712072 216.814L1100.18 216.814L1100.18 215.39L0.712072 215.39L0.712072 216.814Z"/>
      <path d="M0.712075 251.218L1100.18 251.217L1100.18 249.794L0.712075 249.794L0.712075 251.218Z"/>
      <path d="M0.712078 285.621L1100.18 285.621L1100.18 284.197L0.712078 284.197L0.712078 285.621Z"/>
      <path d="M0.712081 320.025L1100.18 320.025L1100.18 318.601L0.712081 318.601L0.712081 320.025Z"/>
      <path d="M0.712084 354.428L1100.18 354.428L1100.18 353.004L0.712084 353.004L0.712084 354.428Z"/>
      <path d="M0.712087 388.832L1100.18 388.832L1100.18 387.408L0.712087 387.408L0.712087 388.832Z"/>
      <path d="M0.71209 423.235L1100.18 423.235L1100.18 421.811L0.71209 421.811L0.71209 423.235Z"/>
      <path d="M0.712093 457.639L1100.18 457.639L1100.18 456.215L0.712093 456.215L0.712093 457.639Z"/>
      <path d="M0.712096 492.043L1100.18 492.042L1100.18 490.619L0.712096 490.619L0.712096 492.043Z"/>
      <path d="M0.712099 526.446L1100.18 526.446L1100.18 525.022L0.712099 525.022L0.712099 526.446Z"/>
      <path d="M33.317 560.138L34.7409 560.138L34.7408 -127.934L33.3169 -127.934L33.317 560.138Z"/>
      <path d="M66.6339 560.138L68.0578 560.138L68.0577 -127.934L66.6338 -127.934L66.6339 560.138Z"/>
      <path d="M99.9507 560.138L101.375 560.138L101.375 -127.934L99.9506 -127.934L99.9507 560.138Z"/>
      <path d="M133.268 560.138L134.692 560.138L134.691 -127.934L133.267 -127.934L133.268 560.138Z"/>
      <path d="M166.588 560.138L168.012 560.138L168.012 -127.934L166.588 -127.934L166.588 560.138Z"/>
      <path d="M199.905 560.138L201.329 560.138L201.329 -127.934L199.905 -127.934L199.905 560.138Z"/>
      <path d="M233.222 560.138L234.645 560.138L234.645 -127.934L233.221 -127.934L233.222 560.138Z"/>
      <path d="M266.538 560.138L267.962 560.138L267.962 -127.934L266.538 -127.934L266.538 560.138Z"/>
      <path d="M299.855 560.138L301.279 560.138L301.279 -127.934L299.855 -127.934L299.855 560.138Z"/>
      <path d="M333.172 560.138L334.596 560.138L334.596 -127.934L333.172 -127.934L333.172 560.138Z"/>
      <path d="M366.489 560.138L367.913 560.138L367.913 -127.934L366.489 -127.934L366.489 560.138Z"/>
      <path d="M399.806 560.138L401.23 560.138L401.23 -127.934L399.806 -127.934L399.806 560.138Z"/>
      <path d="M433.123 560.138L434.547 560.138L434.546 -127.934L433.123 -127.934L433.123 560.138Z"/>
      <path d="M466.439 560.138L467.863 560.138L467.863 -127.934L466.439 -127.934L466.439 560.138Z"/>
      <path d="M499.756 560.138L501.18 560.138L501.18 -127.934L499.756 -127.934L499.756 560.138Z"/>
      <path d="M533.073 560.138L534.497 560.138L534.497 -127.934L533.073 -127.934L533.073 560.138Z"/>
      <path d="M566.393 560.138L567.817 560.138L567.817 -127.934L566.393 -127.934L566.393 560.138Z"/>
      <path d="M599.71 560.138L601.134 560.138L601.134 -127.934L599.71 -127.934L599.71 560.138Z"/>
      <path d="M633.027 560.138L634.451 560.138L634.451 -127.934L633.027 -127.934L633.027 560.138Z"/>
      <path d="M666.344 560.138L667.768 560.138L667.768 -127.934L666.344 -127.934L666.344 560.138Z"/>
      <path d="M699.661 560.138L701.085 560.138L701.085 -127.934L699.661 -127.934L699.661 560.138Z"/>
      <path d="M732.978 560.138L734.402 560.138L734.402 -127.934L732.978 -127.934L732.978 560.138Z"/>
      <path d="M766.295 560.138L767.719 560.138L767.719 -127.934L766.295 -127.934L766.295 560.138Z"/>
      <path d="M799.611 560.138L801.035 560.138L801.035 -127.934L799.611 -127.934L799.611 560.138Z"/>
      <path d="M832.928 560.138L834.352 560.138L834.352 -127.934L832.928 -127.934L832.928 560.138Z"/>
      <path d="M866.245 560.138L867.669 560.138L867.669 -127.934L866.245 -127.934L866.245 560.138Z"/>
      <path d="M899.562 560.138L900.986 560.138L900.986 -127.934L899.562 -127.934L899.562 560.138Z"/>
      <path d="M932.879 560.138L934.303 560.138L934.303 -127.934L932.879 -127.934L932.879 560.138Z"/>
      <path d="M966.196 560.138L967.62 560.138L967.62 -127.934L966.196 -127.934L966.196 560.138Z"/>
      <path d="M999.516 560.138L1000.94 560.138L1000.94 -127.934L999.516 -127.934L999.516 560.138Z"/>
      <path d="M1032.83 560.138L1034.26 560.138L1034.26 -127.934L1032.83 -127.934L1032.83 560.138Z"/>
      <path d="M1066.15 560.138L1067.57 560.138L1067.57 -127.934L1066.15 -127.934L1066.15 560.138Z"/>
    </mask>
    <path d="M5.33998e-06 -128.646L1100.89 -128.646L1100.89 560.856L6.56182e-05 560.857L5.33998e-06 -128.646ZM1099.47 -127.222L1.42396 -127.222L1.42402 559.426L1099.47 559.426L1099.47 -127.222Z" stroke="url(#paint0_radial_892_42844)" stroke-width="1.84421" mask="url(#path-1-inside-1_892_42844)"/>
    <path d="M0.712045 -92.8182L1100.18 -92.8183L1100.18 -94.2423L0.712044 -94.2422L0.712045 -92.8182Z" stroke="url(#paint1_radial_892_42844)" stroke-width="1.84421" mask="url(#path-1-inside-1_892_42844)"/>
    <path d="M0.712048 -58.4146L1100.18 -58.4147L1100.18 -59.8387L0.712047 -59.8386L0.712048 -58.4146Z" stroke="url(#paint2_radial_892_42844)" stroke-width="1.84421" mask="url(#path-1-inside-1_892_42844)"/>
    <path d="M0.712051 -24.011L1100.18 -24.0111L1100.18 -25.4351L0.71205 -25.435L0.712051 -24.011Z" stroke="url(#paint3_radial_892_42844)" stroke-width="1.84421" mask="url(#path-1-inside-1_892_42844)"/>
    <path d="M0.712054 10.3925L1100.18 10.3924L1100.18 8.96848L0.712053 8.96857L0.712054 10.3925Z" stroke="url(#paint4_radial_892_42844)" stroke-width="1.84421" mask="url(#path-1-inside-1_892_42844)"/>
    <path d="M0.712057 44.7961L1100.18 44.796L1100.18 43.372L0.712056 43.3721L0.712057 44.7961Z" stroke="url(#paint5_radial_892_42844)" stroke-width="1.84421" mask="url(#path-1-inside-1_892_42844)"/>
    <path d="M0.71206 79.1997L1100.18 79.1996L1100.18 77.7756L0.712059 77.7757L0.71206 79.1997Z" stroke="url(#paint6_radial_892_42844)" stroke-width="1.84421" mask="url(#path-1-inside-1_892_42844)"/>
    <path d="M0.712063 113.603L1100.18 113.603L1100.18 112.179L0.712062 112.179L0.712063 113.603Z" stroke="url(#paint7_radial_892_42844)" stroke-width="1.84421" mask="url(#path-1-inside-1_892_42844)"/>
    <path d="M0.712066 148.007L1100.18 148.007L1100.18 146.583L0.712065 146.583L0.712066 148.007Z" stroke="url(#paint8_radial_892_42844)" stroke-width="1.84421" mask="url(#path-1-inside-1_892_42844)"/>
    <path d="M0.712069 182.41L1100.18 182.41L1100.18 180.986L0.712068 180.986L0.712069 182.41Z" stroke="url(#paint9_radial_892_42844)" stroke-width="1.84421" mask="url(#path-1-inside-1_892_42844)"/>
    <path d="M0.712072 216.814L1100.18 216.814L1100.18 215.39L0.712072 215.39L0.712072 216.814Z" stroke="url(#paint10_radial_892_42844)" stroke-width="1.84421" mask="url(#path-1-inside-1_892_42844)"/>
    <path d="M0.712075 251.218L1100.18 251.217L1100.18 249.794L0.712075 249.794L0.712075 251.218Z" stroke="url(#paint11_radial_892_42844)" stroke-width="1.84421" mask="url(#path-1-inside-1_892_42844)"/>
    <path d="M0.712078 285.621L1100.18 285.621L1100.18 284.197L0.712078 284.197L0.712078 285.621Z" stroke="url(#paint12_radial_892_42844)" stroke-width="1.84421" mask="url(#path-1-inside-1_892_42844)"/>
    <path d="M0.712081 320.025L1100.18 320.025L1100.18 318.601L0.712081 318.601L0.712081 320.025Z" stroke="url(#paint13_radial_892_42844)" stroke-width="1.84421" mask="url(#path-1-inside-1_892_42844)"/>
    <path d="M0.712084 354.428L1100.18 354.428L1100.18 353.004L0.712084 353.004L0.712084 354.428Z" stroke="url(#paint14_radial_892_42844)" stroke-width="1.84421" mask="url(#path-1-inside-1_892_42844)"/>
    <path d="M0.712087 388.832L1100.18 388.832L1100.18 387.408L0.712087 387.408L0.712087 388.832Z" stroke="url(#paint15_radial_892_42844)" stroke-width="1.84421" mask="url(#path-1-inside-1_892_42844)"/>
    <path d="M0.71209 423.235L1100.18 423.235L1100.18 421.811L0.71209 421.811L0.71209 423.235Z" stroke="url(#paint16_radial_892_42844)" stroke-width="1.84421" mask="url(#path-1-inside-1_892_42844)"/>
    <path d="M0.712093 457.639L1100.18 457.639L1100.18 456.215L0.712093 456.215L0.712093 457.639Z" stroke="url(#paint17_radial_892_42844)" stroke-width="1.84421" mask="url(#path-1-inside-1_892_42844)"/>
    <path d="M0.712096 492.043L1100.18 492.042L1100.18 490.619L0.712096 490.619L0.712096 492.043Z" stroke="url(#paint18_radial_892_42844)" stroke-width="1.84421" mask="url(#path-1-inside-1_892_42844)"/>
    <path d="M0.712099 526.446L1100.18 526.446L1100.18 525.022L0.712099 525.022L0.712099 526.446Z" stroke="url(#paint19_radial_892_42844)" stroke-width="1.84421" mask="url(#path-1-inside-1_892_42844)"/>
    <path d="M33.317 560.138L34.7409 560.138L34.7408 -127.934L33.3169 -127.934L33.317 560.138Z" stroke="url(#paint20_radial_892_42844)" stroke-width="1.84421" mask="url(#path-1-inside-1_892_42844)"/>
    <path d="M66.6339 560.138L68.0578 560.138L68.0577 -127.934L66.6338 -127.934L66.6339 560.138Z" stroke="url(#paint21_radial_892_42844)" stroke-width="1.84421" mask="url(#path-1-inside-1_892_42844)"/>
    <path d="M99.9507 560.138L101.375 560.138L101.375 -127.934L99.9506 -127.934L99.9507 560.138Z" stroke="url(#paint22_radial_892_42844)" stroke-width="1.84421" mask="url(#path-1-inside-1_892_42844)"/>
    <path d="M133.268 560.138L134.692 560.138L134.691 -127.934L133.267 -127.934L133.268 560.138Z" stroke="url(#paint23_radial_892_42844)" stroke-width="1.84421" mask="url(#path-1-inside-1_892_42844)"/>
    <path d="M166.588 560.138L168.012 560.138L168.012 -127.934L166.588 -127.934L166.588 560.138Z" stroke="url(#paint24_radial_892_42844)" stroke-width="1.84421" mask="url(#path-1-inside-1_892_42844)"/>
    <path d="M199.905 560.138L201.329 560.138L201.329 -127.934L199.905 -127.934L199.905 560.138Z" stroke="url(#paint25_radial_892_42844)" stroke-width="1.84421" mask="url(#path-1-inside-1_892_42844)"/>
    <path d="M233.222 560.138L234.645 560.138L234.645 -127.934L233.221 -127.934L233.222 560.138Z" stroke="url(#paint26_radial_892_42844)" stroke-width="1.84421" mask="url(#path-1-inside-1_892_42844)"/>
    <path d="M266.538 560.138L267.962 560.138L267.962 -127.934L266.538 -127.934L266.538 560.138Z" stroke="url(#paint27_radial_892_42844)" stroke-width="1.84421" mask="url(#path-1-inside-1_892_42844)"/>
    <path d="M299.855 560.138L301.279 560.138L301.279 -127.934L299.855 -127.934L299.855 560.138Z" stroke="url(#paint28_radial_892_42844)" stroke-width="1.84421" mask="url(#path-1-inside-1_892_42844)"/>
    <path d="M333.172 560.138L334.596 560.138L334.596 -127.934L333.172 -127.934L333.172 560.138Z" stroke="url(#paint29_radial_892_42844)" stroke-width="1.84421" mask="url(#path-1-inside-1_892_42844)"/>
    <path d="M366.489 560.138L367.913 560.138L367.913 -127.934L366.489 -127.934L366.489 560.138Z" stroke="url(#paint30_radial_892_42844)" stroke-width="1.84421" mask="url(#path-1-inside-1_892_42844)"/>
    <path d="M399.806 560.138L401.23 560.138L401.23 -127.934L399.806 -127.934L399.806 560.138Z" stroke="url(#paint31_radial_892_42844)" stroke-width="1.84421" mask="url(#path-1-inside-1_892_42844)"/>
    <path d="M433.123 560.138L434.547 560.138L434.546 -127.934L433.123 -127.934L433.123 560.138Z" stroke="url(#paint32_radial_892_42844)" stroke-width="1.84421" mask="url(#path-1-inside-1_892_42844)"/>
    <path d="M466.439 560.138L467.863 560.138L467.863 -127.934L466.439 -127.934L466.439 560.138Z" stroke="url(#paint33_radial_892_42844)" stroke-width="1.84421" mask="url(#path-1-inside-1_892_42844)"/>
    <path d="M499.756 560.138L501.18 560.138L501.18 -127.934L499.756 -127.934L499.756 560.138Z" stroke="url(#paint34_radial_892_42844)" stroke-width="1.84421" mask="url(#path-1-inside-1_892_42844)"/>
    <path d="M533.073 560.138L534.497 560.138L534.497 -127.934L533.073 -127.934L533.073 560.138Z" stroke="url(#paint35_radial_892_42844)" stroke-width="1.84421" mask="url(#path-1-inside-1_892_42844)"/>
    <path d="M566.393 560.138L567.817 560.138L567.817 -127.934L566.393 -127.934L566.393 560.138Z" stroke="url(#paint36_radial_892_42844)" stroke-width="1.84421" mask="url(#path-1-inside-1_892_42844)"/>
    <path d="M599.71 560.138L601.134 560.138L601.134 -127.934L599.71 -127.934L599.71 560.138Z" stroke="url(#paint37_radial_892_42844)" stroke-width="1.84421" mask="url(#path-1-inside-1_892_42844)"/>
    <path d="M633.027 560.138L634.451 560.138L634.451 -127.934L633.027 -127.934L633.027 560.138Z" stroke="url(#paint38_radial_892_42844)" stroke-width="1.84421" mask="url(#path-1-inside-1_892_42844)"/>
    <path d="M666.344 560.138L667.768 560.138L667.768 -127.934L666.344 -127.934L666.344 560.138Z" stroke="url(#paint39_radial_892_42844)" stroke-width="1.84421" mask="url(#path-1-inside-1_892_42844)"/>
    <path d="M699.661 560.138L701.085 560.138L701.085 -127.934L699.661 -127.934L699.661 560.138Z" stroke="url(#paint40_radial_892_42844)" stroke-width="1.84421" mask="url(#path-1-inside-1_892_42844)"/>
    <path d="M732.978 560.138L734.402 560.138L734.402 -127.934L732.978 -127.934L732.978 560.138Z" stroke="url(#paint41_radial_892_42844)" stroke-width="1.84421" mask="url(#path-1-inside-1_892_42844)"/>
    <path d="M766.295 560.138L767.719 560.138L767.719 -127.934L766.295 -127.934L766.295 560.138Z" stroke="url(#paint42_radial_892_42844)" stroke-width="1.84421" mask="url(#path-1-inside-1_892_42844)"/>
    <path d="M799.611 560.138L801.035 560.138L801.035 -127.934L799.611 -127.934L799.611 560.138Z" stroke="url(#paint43_radial_892_42844)" stroke-width="1.84421" mask="url(#path-1-inside-1_892_42844)"/>
    <path d="M832.928 560.138L834.352 560.138L834.352 -127.934L832.928 -127.934L832.928 560.138Z" stroke="url(#paint44_radial_892_42844)" stroke-width="1.84421" mask="url(#path-1-inside-1_892_42844)"/>
    <path d="M866.245 560.138L867.669 560.138L867.669 -127.934L866.245 -127.934L866.245 560.138Z" stroke="url(#paint45_radial_892_42844)" stroke-width="1.84421" mask="url(#path-1-inside-1_892_42844)"/>
    <path d="M899.562 560.138L900.986 560.138L900.986 -127.934L899.562 -127.934L899.562 560.138Z" stroke="url(#paint46_radial_892_42844)" stroke-width="1.84421" mask="url(#path-1-inside-1_892_42844)"/>
    <path d="M932.879 560.138L934.303 560.138L934.303 -127.934L932.879 -127.934L932.879 560.138Z" stroke="url(#paint47_radial_892_42844)" stroke-width="1.84421" mask="url(#path-1-inside-1_892_42844)"/>
    <path d="M966.196 560.138L967.62 560.138L967.62 -127.934L966.196 -127.934L966.196 560.138Z" stroke="url(#paint48_radial_892_42844)" stroke-width="1.84421" mask="url(#path-1-inside-1_892_42844)"/>
    <path d="M999.516 560.138L1000.94 560.138L1000.94 -127.934L999.516 -127.934L999.516 560.138Z" stroke="url(#paint49_radial_892_42844)" stroke-width="1.84421" mask="url(#path-1-inside-1_892_42844)"/>
    <path d="M1032.83 560.138L1034.26 560.138L1034.26 -127.934L1032.83 -127.934L1032.83 560.138Z" stroke="url(#paint50_radial_892_42844)" stroke-width="1.84421" mask="url(#path-1-inside-1_892_42844)"/>
    <path d="M1066.15 560.138L1067.57 560.138L1067.57 -127.934L1066.15 -127.934L1066.15 560.138Z" stroke="url(#paint51_radial_892_42844)" stroke-width="1.84421" mask="url(#path-1-inside-1_892_42844)"/>
  </g>
  <defs>
    <radialGradient id="paint0_radial_892_42844" cx="0" cy="0" r="1" gradientUnits="userSpaceOnUse" gradientTransform="translate(1230.82 -260.479) rotate(140.254) scale(640.044 1021.92)">
      <stop stop-color="#1E92E2"/>
      <stop offset="1" stop-color="#1E92E2" stop-opacity="0"/>
    </radialGradient>
    <radialGradient id="paint1_radial_892_42844" cx="0" cy="0" r="1" gradientUnits="userSpaceOnUse" gradientTransform="translate(1230.82 -260.479) rotate(140.254) scale(640.044 1021.92)">
      <stop stop-color="#1E92E2"/>
      <stop offset="1" stop-color="#1E92E2" stop-opacity="0"/>
    </radialGradient>
    <radialGradient id="paint2_radial_892_42844" cx="0" cy="0" r="1" gradientUnits="userSpaceOnUse" gradientTransform="translate(1230.82 -260.479) rotate(140.254) scale(640.044 1021.92)">
      <stop stop-color="#1E92E2"/>
      <stop offset="1" stop-color="#1E92E2" stop-opacity="0"/>
    </radialGradient>
    <radialGradient id="paint3_radial_892_42844" cx="0" cy="0" r="1" gradientUnits="userSpaceOnUse" gradientTransform="translate(1230.82 -260.479) rotate(140.254) scale(640.044 1021.92)">
      <stop stop-color="#1E92E2"/>
      <stop offset="1" stop-color="#1E92E2" stop-opacity="0"/>
    </radialGradient>
    <radialGradient id="paint4_radial_892_42844" cx="0" cy="0" r="1" gradientUnits="userSpaceOnUse" gradientTransform="translate(1230.82 -260.479) rotate(140.254) scale(640.044 1021.92)">
      <stop stop-color="#1E92E2"/>
      <stop offset="1" stop-color="#1E92E2" stop-opacity="0"/>
    </radialGradient>
    <radialGradient id="paint5_radial_892_42844" cx="0" cy="0" r="1" gradientUnits="userSpaceOnUse" gradientTransform="translate(1230.82 -260.479) rotate(140.254) scale(640.044 1021.92)">
      <stop stop-color="#1E92E2"/>
      <stop offset="1" stop-color="#1E92E2" stop-opacity="0"/>
    </radialGradient>
    <radialGradient id="paint6_radial_892_42844" cx="0" cy="0" r="1" gradientUnits="userSpaceOnUse" gradientTransform="translate(1230.82 -260.479) rotate(140.254) scale(640.044 1021.92)">
      <stop stop-color="#1E92E2"/>
      <stop offset="1" stop-color="#1E92E2" stop-opacity="0"/>
    </radialGradient>
    <radialGradient id="paint7_radial_892_42844" cx="0" cy="0" r="1" gradientUnits="userSpaceOnUse" gradientTransform="translate(1230.82 -260.479) rotate(140.254) scale(640.044 1021.92)">
      <stop stop-color="#1E92E2"/>
      <stop offset="1" stop-color="#1E92E2" stop-opacity="0"/>
    </radialGradient>
    <radialGradient id="paint8_radial_892_42844" cx="0" cy="0" r="1" gradientUnits="userSpaceOnUse" gradientTransform="translate(1230.82 -260.479) rotate(140.254) scale(640.044 1021.92)">
      <stop stop-color="#1E92E2"/>
      <stop offset="1" stop-color="#1E92E2" stop-opacity="0"/>
    </radialGradient>
    <radialGradient id="paint9_radial_892_42844" cx="0" cy="0" r="1" gradientUnits="userSpaceOnUse" gradientTransform="translate(1230.82 -260.479) rotate(140.254) scale(640.044 1021.92)">
      <stop stop-color="#1E92E2"/>
      <stop offset="1" stop-color="#1E92E2" stop-opacity="0"/>
    </radialGradient>
    <radialGradient id="paint10_radial_892_42844" cx="0" cy="0" r="1" gradientUnits="userSpaceOnUse" gradientTransform="translate(1230.82 -260.479) rotate(140.254) scale(640.044 1021.92)">
      <stop stop-color="#1E92E2"/>
      <stop offset="1" stop-color="#1E92E2" stop-opacity="0"/>
    </radialGradient>
    <radialGradient id="paint11_radial_892_42844" cx="0" cy="0" r="1" gradientUnits="userSpaceOnUse" gradientTransform="translate(1230.82 -260.479) rotate(140.254) scale(640.044 1021.92)">
      <stop stop-color="#1E92E2"/>
      <stop offset="1" stop-color="#1E92E2" stop-opacity="0"/>
    </radialGradient>
    <radialGradient id="paint12_radial_892_42844" cx="0" cy="0" r="1" gradientUnits="userSpaceOnUse" gradientTransform="translate(1230.82 -260.479) rotate(140.254) scale(640.044 1021.92)">
      <stop stop-color="#1E92E2"/>
      <stop offset="1" stop-color="#1E92E2" stop-opacity="0"/>
    </radialGradient>
    <radialGradient id="paint13_radial_892_42844" cx="0" cy="0" r="1" gradientUnits="userSpaceOnUse" gradientTransform="translate(1230.82 -260.479) rotate(140.254) scale(640.044 1021.92)">
      <stop stop-color="#1E92E2"/>
      <stop offset="1" stop-color="#1E92E2" stop-opacity="0"/>
    </radialGradient>
    <radialGradient id="paint14_radial_892_42844" cx="0" cy="0" r="1" gradientUnits="userSpaceOnUse" gradientTransform="translate(1230.82 -260.479) rotate(140.254) scale(640.044 1021.92)">
      <stop stop-color="#1E92E2"/>
      <stop offset="1" stop-color="#1E92E2" stop-opacity="0"/>
    </radialGradient>
    <radialGradient id="paint15_radial_892_42844" cx="0" cy="0" r="1" gradientUnits="userSpaceOnUse" gradientTransform="translate(1230.82 -260.479) rotate(140.254) scale(640.044 1021.92)">
      <stop stop-color="#1E92E2"/>
      <stop offset="1" stop-color="#1E92E2" stop-opacity="0"/>
    </radialGradient>
    <radialGradient id="paint16_radial_892_42844" cx="0" cy="0" r="1" gradientUnits="userSpaceOnUse" gradientTransform="translate(1230.82 -260.479) rotate(140.254) scale(640.044 1021.92)">
      <stop stop-color="#1E92E2"/>
      <stop offset="1" stop-color="#1E92E2" stop-opacity="0"/>
    </radialGradient>
    <radialGradient id="paint17_radial_892_42844" cx="0" cy="0" r="1" gradientUnits="userSpaceOnUse" gradientTransform="translate(1230.82 -260.479) rotate(140.254) scale(640.044 1021.92)">
      <stop stop-color="#1E92E2"/>
      <stop offset="1" stop-color="#1E92E2" stop-opacity="0"/>
    </radialGradient>
    <radialGradient id="paint18_radial_892_42844" cx="0" cy="0" r="1" gradientUnits="userSpaceOnUse" gradientTransform="translate(1230.82 -260.479) rotate(140.254) scale(640.044 1021.92)">
      <stop stop-color="#1E92E2"/>
      <stop offset="1" stop-color="#1E92E2" stop-opacity="0"/>
    </radialGradient>
    <radialGradient id="paint19_radial_892_42844" cx="0" cy="0" r="1" gradientUnits="userSpaceOnUse" gradientTransform="translate(1230.82 -260.479) rotate(140.254) scale(640.044 1021.92)">
      <stop stop-color="#1E92E2"/>
      <stop offset="1" stop-color="#1E92E2" stop-opacity="0"/>
    </radialGradient>
    <radialGradient id="paint20_radial_892_42844" cx="0" cy="0" r="1" gradientUnits="userSpaceOnUse" gradientTransform="translate(1230.82 -260.479) rotate(140.254) scale(640.044 1021.92)">
      <stop stop-color="#1E92E2"/>
      <stop offset="1" stop-color="#1E92E2" stop-opacity="0"/>
    </radialGradient>
    <radialGradient id="paint21_radial_892_42844" cx="0" cy="0" r="1" gradientUnits="userSpaceOnUse" gradientTransform="translate(1230.82 -260.479) rotate(140.254) scale(640.044 1021.92)">
      <stop stop-color="#1E92E2"/>
      <stop offset="1" stop-color="#1E92E2" stop-opacity="0"/>
    </radialGradient>
    <radialGradient id="paint22_radial_892_42844" cx="0" cy="0" r="1" gradientUnits="userSpaceOnUse" gradientTransform="translate(1230.82 -260.479) rotate(140.254) scale(640.044 1021.92)">
      <stop stop-color="#1E92E2"/>
      <stop offset="1" stop-color="#1E92E2" stop-opacity="0"/>
    </radialGradient>
    <radialGradient id="paint23_radial_892_42844" cx="0" cy="0" r="1" gradientUnits="userSpaceOnUse" gradientTransform="translate(1230.82 -260.479) rotate(140.254) scale(640.044 1021.92)">
      <stop stop-color="#1E92E2"/>
      <stop offset="1" stop-color="#1E92E2" stop-opacity="0"/>
    </radialGradient>
    <radialGradient id="paint24_radial_892_42844" cx="0" cy="0" r="1" gradientUnits="userSpaceOnUse" gradientTransform="translate(1230.82 -260.479) rotate(140.254) scale(640.044 1021.92)">
      <stop stop-color="#1E92E2"/>
      <stop offset="1" stop-color="#1E92E2" stop-opacity="0"/>
    </radialGradient>
    <radialGradient id="paint25_radial_892_42844" cx="0" cy="0" r="1" gradientUnits="userSpaceOnUse" gradientTransform="translate(1230.82 -260.479) rotate(140.254) scale(640.044 1021.92)">
      <stop stop-color="#1E92E2"/>
      <stop offset="1" stop-color="#1E92E2" stop-opacity="0"/>
    </radialGradient>
    <radialGradient id="paint26_radial_892_42844" cx="0" cy="0" r="1" gradientUnits="userSpaceOnUse" gradientTransform="translate(1230.82 -260.479) rotate(140.254) scale(640.044 1021.92)">
      <stop stop-color="#1E92E2"/>
      <stop offset="1" stop-color="#1E92E2" stop-opacity="0"/>
    </radialGradient>
    <radialGradient id="paint27_radial_892_42844" cx="0" cy="0" r="1" gradientUnits="userSpaceOnUse" gradientTransform="translate(1230.82 -260.479) rotate(140.254) scale(640.044 1021.92)">
      <stop stop-color="#1E92E2"/>
      <stop offset="1" stop-color="#1E92E2" stop-opacity="0"/>
    </radialGradient>
    <radialGradient id="paint28_radial_892_42844" cx="0" cy="0" r="1" gradientUnits="userSpaceOnUse" gradientTransform="translate(1230.82 -260.479) rotate(140.254) scale(640.044 1021.92)">
      <stop stop-color="#1E92E2"/>
      <stop offset="1" stop-color="#1E92E2" stop-opacity="0"/>
    </radialGradient>
    <radialGradient id="paint29_radial_892_42844" cx="0" cy="0" r="1" gradientUnits="userSpaceOnUse" gradientTransform="translate(1230.82 -260.479) rotate(140.254) scale(640.044 1021.92)">
      <stop stop-color="#1E92E2"/>
      <stop offset="1" stop-color="#1E92E2" stop-opacity="0"/>
    </radialGradient>
    <radialGradient id="paint30_radial_892_42844" cx="0" cy="0" r="1" gradientUnits="userSpaceOnUse" gradientTransform="translate(1230.82 -260.479) rotate(140.254) scale(640.044 1021.92)">
      <stop stop-color="#1E92E2"/>
      <stop offset="1" stop-color="#1E92E2" stop-opacity="0"/>
    </radialGradient>
    <radialGradient id="paint31_radial_892_42844" cx="0" cy="0" r="1" gradientUnits="userSpaceOnUse" gradientTransform="translate(1230.82 -260.479) rotate(140.254) scale(640.044 1021.92)">
      <stop stop-color="#1E92E2"/>
      <stop offset="1" stop-color="#1E92E2" stop-opacity="0"/>
    </radialGradient>
    <radialGradient id="paint32_radial_892_42844" cx="0" cy="0" r="1" gradientUnits="userSpaceOnUse" gradientTransform="translate(1230.82 -260.479) rotate(140.254) scale(640.044 1021.92)">
      <stop stop-color="#1E92E2"/>
      <stop offset="1" stop-color="#1E92E2" stop-opacity="0"/>
    </radialGradient>
    <radialGradient id="paint33_radial_892_42844" cx="0" cy="0" r="1" gradientUnits="userSpaceOnUse" gradientTransform="translate(1230.82 -260.479) rotate(140.254) scale(640.044 1021.92)">
      <stop stop-color="#1E92E2"/>
      <stop offset="1" stop-color="#1E92E2" stop-opacity="0"/>
    </radialGradient>
    <radialGradient id="paint34_radial_892_42844" cx="0" cy="0" r="1" gradientUnits="userSpaceOnUse" gradientTransform="translate(1230.82 -260.479) rotate(140.254) scale(640.044 1021.92)">
      <stop stop-color="#1E92E2"/>
      <stop offset="1" stop-color="#1E92E2" stop-opacity="0"/>
    </radialGradient>
    <radialGradient id="paint35_radial_892_42844" cx="0" cy="0" r="1" gradientUnits="userSpaceOnUse" gradientTransform="translate(1230.82 -260.479) rotate(140.254) scale(640.044 1021.92)">
      <stop stop-color="#1E92E2"/>
      <stop offset="1" stop-color="#1E92E2" stop-opacity="0"/>
    </radialGradient>
    <radialGradient id="paint36_radial_892_42844" cx="0" cy="0" r="1" gradientUnits="userSpaceOnUse" gradientTransform="translate(1230.82 -260.479) rotate(140.254) scale(640.044 1021.92)">
      <stop stop-color="#1E92E2"/>
      <stop offset="1" stop-color="#1E92E2" stop-opacity="0"/>
    </radialGradient>
    <radialGradient id="paint37_radial_892_42844" cx="0" cy="0" r="1" gradientUnits="userSpaceOnUse" gradientTransform="translate(1230.82 -260.479) rotate(140.254) scale(640.044 1021.92)">
      <stop stop-color="#1E92E2"/>
      <stop offset="1" stop-color="#1E92E2" stop-opacity="0"/>
    </radialGradient>
    <radialGradient id="paint38_radial_892_42844" cx="0" cy="0" r="1" gradientUnits="userSpaceOnUse" gradientTransform="translate(1230.82 -260.479) rotate(140.254) scale(640.044 1021.92)">
      <stop stop-color="#1E92E2"/>
      <stop offset="1" stop-color="#1E92E2" stop-opacity="0"/>
    </radialGradient>
    <radialGradient id="paint39_radial_892_42844" cx="0" cy="0" r="1" gradientUnits="userSpaceOnUse" gradientTransform="translate(1230.82 -260.479) rotate(140.254) scale(640.044 1021.92)">
      <stop stop-color="#1E92E2"/>
      <stop offset="1" stop-color="#1E92E2" stop-opacity="0"/>
    </radialGradient>
    <radialGradient id="paint40_radial_892_42844" cx="0" cy="0" r="1" gradientUnits="userSpaceOnUse" gradientTransform="translate(1230.82 -260.479) rotate(140.254) scale(640.044 1021.92)">
      <stop stop-color="#1E92E2"/>
      <stop offset="1" stop-color="#1E92E2" stop-opacity="0"/>
    </radialGradient>
    <radialGradient id="paint41_radial_892_42844" cx="0" cy="0" r="1" gradientUnits="userSpaceOnUse" gradientTransform="translate(1230.82 -260.479) rotate(140.254) scale(640.044 1021.92)">
      <stop stop-color="#1E92E2"/>
      <stop offset="1" stop-color="#1E92E2" stop-opacity="0"/>
    </radialGradient>
    <radialGradient id="paint42_radial_892_42844" cx="0" cy="0" r="1" gradientUnits="userSpaceOnUse" gradientTransform="translate(1230.82 -260.479) rotate(140.254) scale(640.044 1021.92)">
      <stop stop-color="#1E92E2"/>
      <stop offset="1" stop-color="#1E92E2" stop-opacity="0"/>
    </radialGradient>
    <radialGradient id="paint43_radial_892_42844" cx="0" cy="0" r="1" gradientUnits="userSpaceOnUse" gradientTransform="translate(1230.82 -260.479) rotate(140.254) scale(640.044 1021.92)">
      <stop stop-color="#1E92E2"/>
      <stop offset="1" stop-color="#1E92E2" stop-opacity="0"/>
    </radialGradient>
    <radialGradient id="paint44_radial_892_42844" cx="0" cy="0" r="1" gradientUnits="userSpaceOnUse" gradientTransform="translate(1230.82 -260.479) rotate(140.254) scale(640.044 1021.92)">
      <stop stop-color="#1E92E2"/>
      <stop offset="1" stop-color="#1E92E2" stop-opacity="0"/>
    </radialGradient>
    <radialGradient id="paint45_radial_892_42844" cx="0" cy="0" r="1" gradientUnits="userSpaceOnUse" gradientTransform="translate(1230.82 -260.479) rotate(140.254) scale(640.044 1021.92)">
      <stop stop-color="#1E92E2"/>
      <stop offset="1" stop-color="#1E92E2" stop-opacity="0"/>
    </radialGradient>
    <radialGradient id="paint46_radial_892_42844" cx="0" cy="0" r="1" gradientUnits="userSpaceOnUse" gradientTransform="translate(1230.82 -260.479) rotate(140.254) scale(640.044 1021.92)">
      <stop stop-color="#1E92E2"/>
      <stop offset="1" stop-color="#1E92E2" stop-opacity="0"/>
    </radialGradient>
    <radialGradient id="paint47_radial_892_42844" cx="0" cy="0" r="1" gradientUnits="userSpaceOnUse" gradientTransform="translate(1230.82 -260.479) rotate(140.254) scale(640.044 1021.92)">
      <stop stop-color="#1E92E2"/>
      <stop offset="1" stop-color="#1E92E2" stop-opacity="0"/>
    </radialGradient>
    <radialGradient id="paint48_radial_892_42844" cx="0" cy="0" r="1" gradientUnits="userSpaceOnUse" gradientTransform="translate(1230.82 -260.479) rotate(140.254) scale(640.044 1021.92)">
      <stop stop-color="#1E92E2"/>
      <stop offset="1" stop-color="#1E92E2" stop-opacity="0"/>
    </radialGradient>
    <radialGradient id="paint49_radial_892_42844" cx="0" cy="0" r="1" gradientUnits="userSpaceOnUse" gradientTransform="translate(1230.82 -260.479) rotate(140.254) scale(640.044 1021.92)">
      <stop stop-color="#1E92E2"/>
      <stop offset="1" stop-color="#1E92E2" stop-opacity="0"/>
    </radialGradient>
    <radialGradient id="paint50_radial_892_42844" cx="0" cy="0" r="1" gradientUnits="userSpaceOnUse" gradientTransform="translate(1230.82 -260.479) rotate(140.254) scale(640.044 1021.92)">
      <stop stop-color="#1E92E2"/>
      <stop offset="1" stop-color="#1E92E2" stop-opacity="0"/>
    </radialGradient>
    <radialGradient id="paint51_radial_892_42844" cx="0" cy="0" r="1" gradientUnits="userSpaceOnUse" gradientTransform="translate(1230.82 -260.479) rotate(140.254) scale(640.044 1021.92)">
      <stop stop-color="#1E92E2"/>
      <stop offset="1" stop-color="#1E92E2" stop-opacity="0"/>
    </radialGradient>
  </defs>
</svg>