<svg width="191" height="49" viewBox="0 0 191 49" fill="none" xmlns="http://www.w3.org/2000/svg">
<g id="Group">
<g id="Group_2">
<path id="Vector" d="M71.3516 19.7831C71.3728 19.8685 71.3516 19.9216 71.2876 19.9428L67.726 21.6359L67.758 21.62C67.6303 21.6626 67.561 21.6787 67.5504 21.6679C67.0817 20.9228 66.5175 20.3583 65.8573 19.9748C65.1969 19.5915 64.425 19.3998 63.5413 19.3998C62.6999 19.3998 61.9601 19.5754 61.3213 19.9269C60.6825 20.2782 60.1234 20.7895 59.6443 21.4603C59.2396 22.0671 58.931 22.7674 58.718 23.5605C58.5049 24.3537 58.3985 25.2191 58.3985 26.1558C58.3985 27.1887 58.5075 28.1123 58.726 28.927C58.9442 29.7417 59.2875 30.4577 59.7562 31.0753C60.2352 31.6821 60.7968 32.1402 61.4411 32.4489C62.0852 32.7578 62.8171 32.912 63.6373 32.912C64.5102 32.912 65.3037 32.6885 66.0171 32.2412C66.7302 31.794 67.3478 31.1232 67.8697 30.2289C67.8697 30.2183 67.907 30.213 67.9816 30.213L71.2717 32.2732C71.2823 32.2841 71.2823 32.3052 71.2717 32.3372C70.4732 33.892 69.4215 35.0445 68.1173 35.7951C66.8127 36.5458 65.2609 36.9211 63.4614 36.9211C62.0984 36.9211 60.8526 36.6788 59.724 36.1945C58.5953 35.7102 57.6103 35.0206 56.7692 34.1261C55.9386 33.1358 55.2919 31.9674 54.8288 30.6203C54.3656 29.2735 54.1339 27.7854 54.1339 26.1563C54.1339 22.9301 55.0388 20.3266 56.8491 18.3462C58.6059 16.3764 60.8579 15.3914 63.6051 15.3914C67.2039 15.3914 69.7807 16.8555 71.3355 19.7835H71.3516V19.7831ZM71.3516 19.7831C71.3408 19.7725 71.3357 19.7619 71.3357 19.7511L71.3516 19.7831Z" fill="white"/>
<path id="Vector_2" d="M84.2482 15.7901C86.3457 15.7901 88.0388 16.3228 89.3272 17.3872C90.0512 17.9836 90.5942 18.6785 90.9563 19.4715C91.3182 20.2647 91.4994 21.1831 91.4994 22.2266C91.4994 23.4192 91.3182 24.4654 90.9563 25.3649C90.5942 26.2648 90.0459 27.002 89.3113 27.577C88.0547 28.6099 86.2608 29.1262 83.9289 29.1262H79.0895V36.4573C79.0895 36.5427 79.052 36.585 78.9776 36.585H74.9847C74.9209 36.585 74.8889 36.5427 74.8889 36.4573V18.2175C74.8889 17.4189 75.091 16.8175 75.4959 16.4128C75.8898 15.9975 76.4487 15.7899 77.1729 15.7899L84.2482 15.7901ZM84.408 19.7513L79.0893 19.7672V25.2136H84.1363C86.1807 25.2136 87.203 24.2608 87.203 22.3546C87.203 20.6297 86.1593 19.7672 84.0726 19.7672L84.408 19.7513Z" fill="white"/>
<path id="Vector_3" d="M110.545 19.8629C110.545 19.9695 110.454 20.0227 110.274 20.0227H99.4129V23.5684H106.233C106.382 23.5684 106.456 23.6377 106.456 23.776V27.5934C106.456 27.6679 106.355 27.7052 106.153 27.7052H99.4129V36.4577C99.4129 36.5431 99.3754 36.5855 99.301 36.5855H95.3559C95.2602 36.5855 95.2123 36.5431 95.2123 36.4577V18.2658C95.2123 16.6156 95.9682 15.7903 97.4802 15.7903H110.273C110.454 15.7903 110.545 15.8437 110.545 15.9501V19.8629H110.545Z" fill="white"/>
<path id="Vector_4" d="M119.704 33.6945C119.704 34.1631 119.622 34.5943 119.457 34.9882C119.292 35.3823 119.066 35.7229 118.778 36.0105C118.491 36.298 118.147 36.5215 117.748 36.6812C117.349 36.841 116.915 36.9209 116.446 36.9209C115.967 36.9209 115.53 36.841 115.137 36.6812C114.743 36.5215 114.402 36.298 114.115 36.0105C113.827 35.7229 113.604 35.3823 113.444 34.9882C113.284 34.5943 113.204 34.1631 113.204 33.6945C113.204 33.226 113.284 32.7975 113.444 32.4087C113.604 32.0201 113.827 31.6847 114.115 31.4025C114.402 31.1205 114.743 30.8994 115.137 30.7397C115.531 30.5799 115.967 30.5 116.446 30.5C116.915 30.5 117.349 30.5799 117.748 30.7397C118.147 30.8994 118.491 31.1205 118.778 31.4025C119.066 31.6847 119.292 32.0201 119.457 32.4087C119.622 32.7975 119.704 33.226 119.704 33.6945Z" fill="white"/>
<path id="Vector_5" d="M138.878 19.7831C138.899 19.8685 138.878 19.9216 138.814 19.9428L135.252 21.6359L135.284 21.62C135.156 21.6626 135.087 21.6787 135.076 21.6679C134.608 20.9228 134.043 20.3583 133.383 19.9748C132.723 19.5915 131.951 19.3998 131.067 19.3998C130.226 19.3998 129.486 19.5754 128.847 19.9269C128.208 20.2782 127.649 20.7895 127.17 21.4603C126.766 22.0671 126.457 22.7674 126.244 23.5605C126.031 24.3537 125.924 25.2191 125.924 26.1558C125.924 27.1887 126.033 28.1123 126.252 28.927C126.47 29.7417 126.813 30.4577 127.282 31.0753C127.761 31.6821 128.323 32.1402 128.967 32.4489C129.611 32.7578 130.343 32.912 131.163 32.912C132.036 32.912 132.83 32.6885 133.543 32.2412C134.256 31.794 134.874 31.1232 135.396 30.2289C135.396 30.2183 135.433 30.213 135.507 30.213L138.798 32.2732C138.808 32.2841 138.808 32.3052 138.798 32.3372C137.999 33.892 136.947 35.0445 135.643 35.7951C134.339 36.5458 132.787 36.9211 130.987 36.9211C129.624 36.9211 128.378 36.6788 127.25 36.1945C126.121 35.7102 125.136 35.0206 124.295 34.1261C123.465 33.1358 122.818 31.9674 122.355 30.6203C121.891 29.2735 121.66 27.7854 121.66 26.1563C121.66 22.9301 122.565 20.3266 124.375 18.3462C126.132 16.3764 128.384 15.3914 131.131 15.3914C134.73 15.3914 137.307 16.8555 138.861 19.7835H138.878V19.7831ZM138.878 19.7831C138.867 19.7725 138.862 19.7619 138.862 19.7511L138.878 19.7831Z" fill="white"/>
<path id="Vector_6" d="M159.712 15.7263C159.797 15.7477 159.84 15.8062 159.84 15.902V34.7646C159.84 35.9893 159.297 36.7077 158.211 36.9209C158.051 36.9529 157.865 36.9688 157.652 36.9688C157.237 36.9688 156.827 36.8355 156.422 36.5694C156.017 36.3033 155.661 35.9679 155.352 35.5632L148.404 25.4691L148.42 25.485L146.551 22.3705L146.615 27.9126V36.4575C146.615 36.5429 146.583 36.5853 146.519 36.5853H142.622C142.558 36.5853 142.527 36.5429 142.527 36.4575V17.9783C142.527 17.329 142.676 16.7992 142.974 16.3892C143.272 15.9794 143.73 15.7157 144.347 15.5986L145.945 15.7422C146.2 15.8488 146.424 15.9657 146.615 16.0935C146.807 16.2212 146.977 16.3916 147.126 16.6045L153.946 26.4592L153.93 26.4433L155.815 29.5898L155.735 24.0157V15.902C155.735 15.7956 155.767 15.7422 155.831 15.7422H159.696L159.712 15.7263Z" fill="white"/>
<path id="Vector_7" d="M173.248 15.7901C175.345 15.7901 177.039 16.3228 178.327 17.3872C179.051 17.9836 179.594 18.6785 179.956 19.4715C180.318 20.2647 180.499 21.1831 180.499 22.2266C180.499 23.4192 180.318 24.4654 179.956 25.3649C179.594 26.2648 179.046 27.002 178.311 27.577C177.054 28.6099 175.26 29.1262 172.928 29.1262H168.089V36.4573C168.089 36.5427 168.052 36.585 167.977 36.585H163.984C163.92 36.585 163.888 36.5427 163.888 36.4573V18.2175C163.888 17.4189 164.091 16.8175 164.495 16.4128C164.889 15.9975 165.448 15.7899 166.172 15.7899L173.248 15.7901ZM173.408 19.7513L168.089 19.7672V25.2136H173.136C175.18 25.2136 176.203 24.2608 176.203 22.3546C176.203 20.6297 175.159 19.7672 173.072 19.7672L173.408 19.7513Z" fill="white"/>
<path id="Vector_8" d="M191 15.9977V30.2125C191 32.3103 190.478 33.8809 189.435 34.9242C188.476 35.9465 186.836 36.6117 184.515 36.9207C184.441 36.9418 184.388 36.8831 184.356 36.745L183.174 33.7423C183.131 33.6146 183.147 33.5455 183.222 33.5347C184.584 33.2472 185.522 32.8428 186.033 32.3209C186.522 31.7353 186.768 30.809 186.768 29.5417V15.9977C186.768 15.8276 186.832 15.7422 186.959 15.7422H190.84L191 15.9977Z" fill="white"/>
</g>
<g id="Group_3">
<path id="Vector_9" d="M41.1481 17.5186L28.023 13.6384L21.7758 34.7702C21.3808 36.1067 19.9639 36.8771 18.6271 36.482L14.8367 35.3616L13.4672 39.9938C13.0722 41.3303 13.8423 42.7472 15.1791 43.1425L32.0946 48.1434C33.4311 48.5384 34.8482 47.7683 35.2433 46.4315L42.8599 20.6675C43.2552 19.3307 42.4848 17.9139 41.1481 17.5186Z" fill="#24A7FF"/>
<path id="Vector_10" d="M24.2328 12.518L28.0229 13.6384L29.3924 9.00618C29.7875 7.66966 29.0173 6.25254 27.6806 5.85747L10.7653 0.856876C9.42852 0.461573 8.01163 1.23197 7.61657 2.56849L-5.41359e-05 28.3327C-0.395117 29.6693 0.375039 31.0864 1.7118 31.4814L14.8369 35.3616L21.0841 14.2298C21.4791 12.8931 22.896 12.1229 24.2328 12.518Z" fill="#0A5CA0"/>
<path id="Vector_11" d="M21.7759 34.7704L28.023 13.6387L24.2329 12.5182C22.8964 12.1231 21.4792 12.8933 21.0842 14.2301L14.837 35.3618L18.6272 36.482C19.9639 36.8773 21.3808 36.1069 21.7759 34.7704Z" fill="#76D8FF"/>
</g>
</g>
</svg>
