<svg width="1920" height="760" viewBox="0 0 1920 760" fill="none" xmlns="http://www.w3.org/2000/svg">
<path opacity="0.3" d="M-391.676 -66.9257L-935.477 1711.77M-239.046 -20.2621L-782.847 1758.43M-86.4156 26.4016L-630.217 1805.09M66.2144 73.0653L-477.587 1851.76M218.844 119.729L-324.957 1898.42M371.474 166.393L-172.327 1945.09M524.104 213.056L-19.6967 1991.75M676.734 259.72L132.933 2038.41M829.364 306.384L285.563 2085.08M981.994 353.047L438.193 2131.74M1122.59 617.472L-656.101 73.6713M1075.93 770.102L-702.765 226.301M1029.26 922.732L-749.429 378.931M982.6 1075.36L-796.092 531.561M935.937 1227.99L-842.756 684.191M889.273 1380.62L-889.42 836.821M842.609 1533.25L-936.083 989.451M795.946 1685.88L-982.747 1142.08M749.282 1838.51L-1029.41 1294.71M702.618 1991.14L-1076.07 1447.34" stroke="url(#paint0_linear_892_38027)" stroke-width="0.519172"/>
<g clip-path="url(#clip0_892_38027)">
<path opacity="0.3" d="M790.313 -838.086L246.512 940.607M942.943 -791.422L399.142 987.271M1095.57 -744.759L551.772 1033.93M1248.2 -698.095L704.402 1080.6M1400.83 -651.431L857.032 1127.26M1553.46 -604.768L1009.66 1173.93M1706.09 -558.104L1162.29 1220.59M1858.72 -511.44L1314.92 1267.25M2011.35 -464.777L1467.55 1313.92M2163.98 -418.113L1620.18 1360.58M2304.58 -153.688L525.887 -697.489M2257.92 -1.05777L479.223 -544.859M2211.25 151.572L432.56 -392.229M2164.59 304.202L385.896 -239.599M2117.93 456.832L339.232 -86.9689M2071.26 609.462L292.569 65.6611M2024.6 762.092L245.905 218.291M1977.93 914.722L199.241 370.921M1931.27 1067.35L152.578 523.551M1884.61 1219.98L105.914 676.181" stroke="url(#paint1_linear_892_38027)" stroke-width="0.519172"/>
</g>
<path d="M228.082 635.604L155.068 874.423M73.3168 595.924L3.70378 823.618M217.393 841.346L-16.9757 769.692M262.635 688.281L25.6705 615.834" stroke="url(#paint2_linear_892_38027)" stroke-width="0.519172"/>
<path d="M1821.4 157.225L1748.39 396.044M1666.64 117.545L1597.02 345.239M1810.71 362.967L1576.34 291.313M1855.96 209.902L1618.99 137.455" stroke="url(#paint3_linear_892_38027)" stroke-width="0.519172"/>
<defs>
<linearGradient id="paint0_linear_892_38027" x1="247.709" y1="241.97" x2="522.042" y2="917.658" gradientUnits="userSpaceOnUse">
<stop stop-color="#BFBFBF" stop-opacity="0"/>
<stop offset="1" stop-color="#AFAFAF"/>
</linearGradient>
<linearGradient id="paint1_linear_892_38027" x1="1429.7" y1="-529.19" x2="1704.03" y2="146.498" gradientUnits="userSpaceOnUse">
<stop stop-color="#BFBFBF" stop-opacity="0"/>
<stop offset="1" stop-color="#AFAFAF"/>
</linearGradient>
<linearGradient id="paint2_linear_892_38027" x1="126.539" y1="709.03" x2="196.998" y2="856.252" gradientUnits="userSpaceOnUse">
<stop stop-color="#24A7FF"/>
<stop offset="1" stop-color="#24A7FF" stop-opacity="0"/>
</linearGradient>
<linearGradient id="paint3_linear_892_38027" x1="1719.86" y1="230.651" x2="1790.32" y2="377.873" gradientUnits="userSpaceOnUse">
<stop stop-color="#24A7FF"/>
<stop offset="1" stop-color="#24A7FF" stop-opacity="0"/>
</linearGradient>
<clipPath id="clip0_892_38027">
<rect width="776" height="683" fill="white" transform="translate(1144 77)"/>
</clipPath>
</defs>
</svg>
