<svg xmlns="http://www.w3.org/2000/svg" width="43" height="43" viewBox="0 0 43 43" fill="none">
  <mask id="path-1-inside-1_1463_964" fill="white">
    <path fill-rule="evenodd" clip-rule="evenodd" d="M3.125 3.125V11H11V3.125H3.125ZM5.75 8.375V5.75H8.375V8.375H5.75ZM18.875 14.9375V8.375C18.875 6.93125 17.6938 5.75 16.25 5.75H13.625V8.375H16.25V14.9375C16.25 17.6938 17.6938 20.0562 19.7937 21.5C17.6938 22.9438 16.25 25.3062 16.25 28.0625V34.625H13.625V37.25H16.25C17.6938 37.25 18.875 36.0687 18.875 34.625V28.0625C18.875 25.175 21.2375 22.8125 24.125 22.8125V20.1875C21.2375 20.1875 18.875 17.825 18.875 14.9375ZM33.3125 28.0625C29.6375 28.0625 26.75 25.175 26.75 21.5C26.75 17.825 29.6375 14.9375 33.3125 14.9375C36.9875 14.9375 39.875 17.825 39.875 21.5C39.875 25.175 36.9875 28.0625 33.3125 28.0625ZM33.3125 17.5625C31.0812 17.5625 29.375 19.2687 29.375 21.5C29.375 23.7313 31.0812 25.4375 33.3125 25.4375C35.5438 25.4375 37.25 23.7313 37.25 21.5C37.25 19.2687 35.5438 17.5625 33.3125 17.5625ZM3.125 32V39.875H11V32H3.125ZM5.75 37.25V34.625H8.375V37.25H5.75ZM3.125 25.4375V17.5625H11V25.4375H3.125ZM5.75 20.1875V22.8125H8.375V20.1875H5.75Z"/>
  </mask>
  <path d="M3.125 11H0.675V13.45H3.125V11ZM3.125 3.125V0.675H0.675V3.125H3.125ZM11 11V13.45H13.45V11H11ZM11 3.125H13.45V0.675H11V3.125ZM5.75 5.75V3.3H3.3V5.75H5.75ZM5.75 8.375H3.3V10.825H5.75V8.375ZM8.375 5.75H10.825V3.3H8.375V5.75ZM8.375 8.375V10.825H10.825V8.375H8.375ZM13.625 5.75V3.3H11.175V5.75H13.625ZM13.625 8.375H11.175V10.825H13.625V8.375ZM16.25 8.375H18.7V5.925H16.25V8.375ZM19.7937 21.5L21.1817 23.5189L24.1183 21.5L21.1817 19.4811L19.7937 21.5ZM16.25 34.625V37.075H18.7V34.625H16.25ZM13.625 34.625V32.175H11.175V34.625H13.625ZM13.625 37.25H11.175V39.7H13.625V37.25ZM24.125 22.8125V25.2625H26.575V22.8125H24.125ZM24.125 20.1875H26.575V17.7375H24.125V20.1875ZM3.125 39.875H0.675V42.325H3.125V39.875ZM3.125 32V29.55H0.675V32H3.125ZM11 39.875V42.325H13.45V39.875H11ZM11 32H13.45V29.55H11V32ZM5.75 34.625V32.175H3.3V34.625H5.75ZM5.75 37.25H3.3V39.7H5.75V37.25ZM8.375 34.625H10.825V32.175H8.375V34.625ZM8.375 37.25V39.7H10.825V37.25H8.375ZM3.125 17.5625V15.1125H0.675V17.5625H3.125ZM3.125 25.4375H0.675V27.8875H3.125V25.4375ZM11 17.5625H13.45V15.1125H11V17.5625ZM11 25.4375V27.8875H13.45V25.4375H11ZM5.75 22.8125H3.3V25.2625H5.75V22.8125ZM5.75 20.1875V17.7375H3.3V20.1875H5.75ZM8.375 22.8125V25.2625H10.825V22.8125H8.375ZM8.375 20.1875H10.825V17.7375H8.375V20.1875ZM5.575 11V3.125H0.675V11H5.575ZM11 8.55H3.125V13.45H11V8.55ZM8.55 3.125V11H13.45V3.125H8.55ZM3.125 5.575H11V0.675H3.125V5.575ZM3.3 5.75V8.375H8.2V5.75H3.3ZM8.375 3.3H5.75V8.2H8.375V3.3ZM10.825 8.375V5.75H5.925V8.375H10.825ZM5.75 10.825H8.375V5.925H5.75V10.825ZM16.425 8.375V14.9375H21.325V8.375H16.425ZM16.25 8.2C16.2905 8.2 16.3323 8.21436 16.3715 8.25351C16.4106 8.29265 16.425 8.3345 16.425 8.375H21.325C21.325 5.57815 19.0468 3.3 16.25 3.3V8.2ZM13.625 8.2H16.25V3.3H13.625V8.2ZM16.075 8.375V5.75H11.175V8.375H16.075ZM16.25 5.925H13.625V10.825H16.25V5.925ZM18.7 14.9375V8.375H13.8V14.9375H18.7ZM21.1817 19.4811C19.6676 18.4402 18.7 16.7957 18.7 14.9375H13.8C13.8 18.5918 15.7199 21.6723 18.4058 23.5189L21.1817 19.4811ZM18.7 28.0625C18.7 26.2043 19.6676 24.5598 21.1817 23.5189L18.4058 19.4811C15.7199 21.3277 13.8 24.4082 13.8 28.0625H18.7ZM18.7 34.625V28.0625H13.8V34.625H18.7ZM13.625 37.075H16.25V32.175H13.625V37.075ZM16.075 37.25V34.625H11.175V37.25H16.075ZM16.25 34.8H13.625V39.7H16.25V34.8ZM16.425 34.625C16.425 34.6655 16.4106 34.7073 16.3715 34.7465C16.3323 34.7856 16.2905 34.8 16.25 34.8V39.7C19.0468 39.7 21.325 37.4218 21.325 34.625H16.425ZM16.425 28.0625V34.625H21.325V28.0625H16.425ZM24.125 20.3625C19.8844 20.3625 16.425 23.8219 16.425 28.0625H21.325C21.325 26.5281 22.5906 25.2625 24.125 25.2625V20.3625ZM21.675 20.1875V22.8125H26.575V20.1875H21.675ZM16.425 14.9375C16.425 19.1781 19.8844 22.6375 24.125 22.6375V17.7375C22.5906 17.7375 21.325 16.4719 21.325 14.9375H16.425ZM24.3 21.5C24.3 26.5281 28.2844 30.5125 33.3125 30.5125V25.6125C30.9906 25.6125 29.2 23.8219 29.2 21.5H24.3ZM33.3125 12.4875C28.2844 12.4875 24.3 16.4719 24.3 21.5H29.2C29.2 19.1781 30.9906 17.3875 33.3125 17.3875V12.4875ZM42.325 21.5C42.325 16.4719 38.3406 12.4875 33.3125 12.4875V17.3875C35.6344 17.3875 37.425 19.1781 37.425 21.5H42.325ZM33.3125 30.5125C38.3406 30.5125 42.325 26.5281 42.325 21.5H37.425C37.425 23.8219 35.6344 25.6125 33.3125 25.6125V30.5125ZM31.825 21.5C31.825 20.6218 32.4343 20.0125 33.3125 20.0125V15.1125C29.7282 15.1125 26.925 17.9157 26.925 21.5H31.825ZM33.3125 22.9875C32.4343 22.9875 31.825 22.3782 31.825 21.5H26.925C26.925 25.0843 29.7282 27.8875 33.3125 27.8875V22.9875ZM34.8 21.5C34.8 22.3782 34.1907 22.9875 33.3125 22.9875V27.8875C36.8968 27.8875 39.7 25.0843 39.7 21.5H34.8ZM33.3125 20.0125C34.1907 20.0125 34.8 20.6218 34.8 21.5H39.7C39.7 17.9157 36.8968 15.1125 33.3125 15.1125V20.0125ZM5.575 39.875V32H0.675V39.875H5.575ZM11 37.425H3.125V42.325H11V37.425ZM8.55 32V39.875H13.45V32H8.55ZM3.125 34.45H11V29.55H3.125V34.45ZM3.3 34.625V37.25H8.2V34.625H3.3ZM8.375 32.175H5.75V37.075H8.375V32.175ZM10.825 37.25V34.625H5.925V37.25H10.825ZM5.75 39.7H8.375V34.8H5.75V39.7ZM0.675 17.5625V25.4375H5.575V17.5625H0.675ZM11 15.1125H3.125V20.0125H11V15.1125ZM13.45 25.4375V17.5625H8.55V25.4375H13.45ZM3.125 27.8875H11V22.9875H3.125V27.8875ZM8.2 22.8125V20.1875H3.3V22.8125H8.2ZM8.375 20.3625H5.75V25.2625H8.375V20.3625ZM5.925 20.1875V22.8125H10.825V20.1875H5.925ZM5.75 22.6375H8.375V17.7375H5.75V22.6375Z" fill="#24A7FF" mask="url(#path-1-inside-1_1463_964)"/>
</svg>