<svg xmlns="http://www.w3.org/2000/svg" width="43" height="43" viewBox="0 0 43 43" fill="none">
  <mask id="path-1-inside-1_1463_111" fill="white">
    <path fill-rule="evenodd" clip-rule="evenodd" d="M27.7731 17.2357L30.316 17.8893C29.7346 20.1507 28.4933 22.1879 26.7502 23.7415V39.875L18.8752 34.625L11.0002 39.875V23.7168C9.02662 21.9536 7.70306 19.5781 7.24226 16.972C6.78146 14.3659 7.21018 11.6805 8.45952 9.34744C9.70887 7.01435 11.7063 5.16902 14.1308 4.10798C16.5553 3.04693 19.2662 2.83179 21.8277 3.49711L21.1728 6.03877C19.4152 5.58702 17.5632 5.66633 15.8507 6.26667C14.1381 6.867 12.642 7.96144 11.5512 9.4117C10.4604 10.862 9.82389 12.603 9.72212 14.4148C9.62034 16.2267 10.0579 18.028 10.9794 19.5913C11.9009 21.1546 13.2651 22.4097 14.8996 23.1981C16.5341 23.9864 18.3656 24.2726 20.1627 24.0206C21.9598 23.7685 23.6419 22.9894 24.9964 21.7818C26.351 20.5742 27.3172 18.9922 27.7731 17.2357ZM18.8752 31.47L24.1252 34.9698V25.5113C22.4951 26.3271 20.6971 26.7512 18.8743 26.7498C17.0514 26.7483 15.2541 26.3215 13.6252 25.5031V34.9698L18.8752 31.47ZM32.7785 7.06255L30.6877 3.12505L28.7189 7.06255L24.1252 7.60593L27.4064 10.563L26.7502 14.9376L30.6877 12.4766L34.6252 14.9376L33.9689 10.563L37.2502 7.60593L32.7785 7.06255Z"/>
  </mask>
  <path d="M30.316 17.8893L32.6889 18.4994L33.299 16.1264L30.926 15.5165L30.316 17.8893ZM27.7731 17.2357L28.383 14.8628L26.0157 14.2544L25.4016 16.6203L27.7731 17.2357ZM26.7502 23.7415L25.1201 21.9126L24.3002 22.6433V23.7415H26.7502ZM26.7502 39.875L25.3912 41.9135L29.2002 44.4529V39.875H26.7502ZM18.8752 34.625L20.2343 32.5865L18.8752 31.6805L17.5162 32.5865L18.8752 34.625ZM11.0002 39.875H8.55025V44.4529L12.3593 41.9135L11.0002 39.875ZM11.0002 23.7168H13.4502V22.6203L12.6325 21.8898L11.0002 23.7168ZM7.24226 16.972L9.65484 16.5454V16.5454L7.24226 16.972ZM8.45952 9.34744L6.2997 8.19087H6.2997L8.45952 9.34744ZM14.1308 4.10798L13.1486 1.8635L13.1486 1.8635L14.1308 4.10798ZM21.8277 3.49711L24.2002 4.10846L24.8104 1.74053L22.4436 1.1258L21.8277 3.49711ZM21.1728 6.03877L20.5629 8.41164L22.9343 9.02117L23.5453 6.65012L21.1728 6.03877ZM11.5512 9.4117L13.5092 10.8844L11.5512 9.4117ZM9.72212 14.4148L12.1683 14.5522L9.72212 14.4148ZM10.9794 19.5913L8.86878 20.8355H8.86878L10.9794 19.5913ZM14.8996 23.1981L13.8353 25.4048H13.8353L14.8996 23.1981ZM20.1627 24.0206L19.8224 21.5943H19.8224L20.1627 24.0206ZM24.9964 21.7818L26.6268 23.6106L24.9964 21.7818ZM24.1252 34.9698L22.7663 37.0084L26.5752 39.5475V34.9698H24.1252ZM18.8752 31.47L20.2342 29.4315L18.8752 28.5256L17.5163 29.4315L18.8752 31.47ZM24.1252 25.5113H26.5752V21.5454L23.0288 23.3203L24.1252 25.5113ZM18.8743 26.7498L18.8762 24.2998H18.8762L18.8743 26.7498ZM13.6252 25.5031L14.7251 23.3139L11.1752 21.5304V25.5031H13.6252ZM13.6252 34.9698H11.1752V39.5475L14.9842 37.0084L13.6252 34.9698ZM30.6877 3.12505L32.8515 1.97604L30.6222 -2.22234L28.4963 2.02938L30.6877 3.12505ZM32.7785 7.06255L30.6146 8.21156L31.2141 9.34048L32.4829 9.49466L32.7785 7.06255ZM28.7189 7.06255L29.0067 9.49559L30.3192 9.34034L30.9102 8.15823L28.7189 7.06255ZM24.1252 7.60593L23.8374 5.17289L18.4702 5.80775L22.485 9.42591L24.1252 7.60593ZM27.4064 10.563L29.8293 10.9265L30.0246 9.62442L29.0466 8.74301L27.4064 10.563ZM26.7502 14.9376L24.3273 14.5741L23.5382 19.8342L28.0487 17.0151L26.7502 14.9376ZM30.6877 12.4766L31.9862 10.399L30.6877 9.58746L29.3892 10.399L30.6877 12.4766ZM34.6252 14.9376L33.3267 17.0151L37.8371 19.8342L37.048 14.5741L34.6252 14.9376ZM33.9689 10.563L32.3287 8.74301L31.3507 9.62442L31.546 10.9265L33.9689 10.563ZM37.2502 7.60593L38.8903 9.42591L42.8882 5.82301L37.5457 5.17382L37.2502 7.60593ZM30.926 15.5165L28.383 14.8628L27.1632 19.6086L29.7061 20.2622L30.926 15.5165ZM28.3804 25.5705C30.4865 23.6933 31.9863 21.2318 32.6889 18.4994L27.9432 17.2792C27.4829 19.0696 26.5001 20.6825 25.1201 21.9126L28.3804 25.5705ZM29.2002 39.875V23.7415H24.3002V39.875H29.2002ZM17.5162 36.6635L25.3912 41.9135L28.1093 37.8365L20.2343 32.5865L17.5162 36.6635ZM12.3593 41.9135L20.2343 36.6635L17.5162 32.5865L9.64123 37.8365L12.3593 41.9135ZM8.55025 23.7168V39.875H13.4502V23.7168H8.55025ZM4.82968 17.3986C5.38616 20.5458 6.98454 23.4146 9.36797 25.5439L12.6325 21.8898C11.0687 20.4927 10.02 18.6104 9.65484 16.5454L4.82968 17.3986ZM6.2997 8.19087C4.79094 11.0084 4.2732 14.2513 4.82968 17.3986L9.65484 16.5454C9.28972 14.4804 9.62942 12.3526 10.6193 10.504L6.2997 8.19087ZM13.1486 1.8635C10.2206 3.14486 7.80845 5.37335 6.2997 8.19087L10.6193 10.504C11.6093 8.65536 13.192 7.19319 15.1131 6.35246L13.1486 1.8635ZM22.4436 1.1258C19.3502 0.322324 16.0765 0.582141 13.1486 1.8635L15.1131 6.35246C17.0342 5.51172 19.1821 5.34125 21.2118 5.86843L22.4436 1.1258ZM23.5453 6.65012L24.2002 4.10846L19.4552 2.88577L18.8003 5.42742L23.5453 6.65012ZM16.6612 8.57872C17.9166 8.1386 19.2744 8.08046 20.5629 8.41164L21.7827 3.6659C19.556 3.09359 17.2097 3.19406 15.0402 3.95462L16.6612 8.57872ZM13.5092 10.8844C14.3088 9.82117 15.4057 9.01883 16.6612 8.57872L15.0402 3.95462C12.8706 4.71518 10.9751 6.1017 9.59319 7.93902L13.5092 10.8844ZM12.1683 14.5522C12.2429 13.224 12.7095 11.9476 13.5092 10.8844L9.59319 7.93902C8.21127 9.77635 7.40491 11.982 7.27597 14.2774L12.1683 14.5522ZM13.09 18.3472C12.4144 17.2011 12.0936 15.8805 12.1683 14.5522L7.27597 14.2774C7.14704 16.5728 7.70132 18.8549 8.86878 20.8355L13.09 18.3472ZM15.9639 20.9913C14.7657 20.4134 13.7656 19.4933 13.09 18.3472L8.86878 20.8355C10.0363 22.816 11.7645 24.4061 13.8353 25.4048L15.9639 20.9913ZM19.8224 21.5943C18.5049 21.7791 17.1622 21.5693 15.9639 20.9913L13.8353 25.4048C15.906 26.4036 18.2263 26.7662 20.503 26.4468L19.8224 21.5943ZM23.3661 19.9531C22.373 20.8384 21.1399 21.4095 19.8224 21.5943L20.503 26.4468C22.7798 26.1275 24.9108 25.1405 26.6268 23.6106L23.3661 19.9531ZM25.4016 16.6203C25.0674 17.908 24.3591 19.0677 23.3661 19.9531L26.6268 23.6106C28.3429 22.0807 29.567 20.0765 30.1445 17.8512L25.4016 16.6203ZM25.4842 32.9312L20.2342 29.4315L17.5163 33.5086L22.7663 37.0084L25.4842 32.9312ZM21.6752 25.5113V34.9698H26.5752V25.5113H21.6752ZM18.8724 29.1997C21.0765 29.2015 23.2507 28.6887 25.2217 27.7022L23.0288 23.3203C21.7396 23.9655 20.3177 24.3009 18.8762 24.2998L18.8724 29.1997ZM12.5254 27.6924C14.4949 28.6819 16.6682 29.198 18.8724 29.1997L18.8762 24.2998C17.4346 24.2986 16.0132 23.9611 14.7251 23.3139L12.5254 27.6924ZM16.0752 34.9698V25.5031H11.1752V34.9698H16.0752ZM17.5163 29.4315L12.2663 32.9312L14.9842 37.0084L20.2342 33.5086L17.5163 29.4315ZM28.5238 4.27406L30.6146 8.21156L34.9423 5.91354L32.8515 1.97604L28.5238 4.27406ZM30.9102 8.15823L32.879 4.22073L28.4963 2.02938L26.5276 5.96688L30.9102 8.15823ZM24.4129 10.039L29.0067 9.49559L28.4311 4.62952L23.8374 5.17289L24.4129 10.039ZM29.0466 8.74301L25.7653 5.78594L22.485 9.42591L25.7662 12.383L29.0466 8.74301ZM29.173 15.301L29.8293 10.9265L24.9835 10.1995L24.3273 14.5741L29.173 15.301ZM29.3892 10.399L25.4517 12.86L28.0487 17.0151L31.9862 14.5542L29.3892 10.399ZM35.9237 12.86L31.9862 10.399L29.3892 14.5542L33.3267 17.0151L35.9237 12.86ZM31.546 10.9265L32.2023 15.301L37.048 14.5741L36.3918 10.1995L31.546 10.9265ZM35.61 5.78594L32.3287 8.74301L35.6091 12.383L38.8903 9.42591L35.61 5.78594ZM32.4829 9.49466L36.9546 10.038L37.5457 5.17382L33.074 4.63044L32.4829 9.49466Z" fill="#24A7FF" mask="url(#path-1-inside-1_1463_111)"/>
</svg>