<svg xmlns="http://www.w3.org/2000/svg" width="43" height="43" viewBox="0 0 43 43" fill="none">
  <mask id="path-1-inside-1_1463_343" fill="white">
    <path fill-rule="evenodd" clip-rule="evenodd" d="M5.75 26.75H37.25C37.9459 26.7491 38.613 26.4722 39.1051 25.9801C39.5972 25.488 39.8741 24.8209 39.875 24.125V8.375C39.8732 7.67935 39.5961 7.0127 39.1042 6.5208C38.6123 6.0289 37.9456 5.75177 37.25 5.75H5.75C5.05435 5.75177 4.3877 6.0289 3.8958 6.5208C3.4039 7.0127 3.12677 7.67935 3.125 8.375V24.125C3.12677 24.8207 3.4039 25.4873 3.8958 25.9792C4.3877 26.4711 5.05435 26.7482 5.75 26.75ZM5.75 8.375H37.25V24.125H5.75V8.375ZM18.5833 20.6152C19.4466 21.1921 20.4617 21.5 21.5 21.5C22.8919 21.4984 24.2264 20.9448 25.2106 19.9606C26.1948 18.9764 26.7484 17.6419 26.75 16.25C26.75 15.2117 26.4421 14.1966 25.8652 13.3333C25.2883 12.4699 24.4684 11.797 23.5091 11.3996C22.5498 11.0023 21.4942 10.8983 20.4758 11.1009C19.4574 11.3035 18.5219 11.8035 17.7877 12.5377C17.0535 13.2719 16.5535 14.2074 16.3509 15.2258C16.1483 16.2442 16.2523 17.2998 16.6496 18.2591C17.047 19.2184 17.7199 20.0383 18.5833 20.6152ZM20.0416 14.0674C20.4733 13.779 20.9808 13.625 21.5 13.625C22.196 13.6257 22.8633 13.9025 23.3554 14.3946C23.8475 14.8867 24.1243 15.554 24.125 16.25C24.125 16.7692 23.9711 17.2767 23.6826 17.7084C23.3942 18.1401 22.9842 18.4765 22.5045 18.6752C22.0249 18.8739 21.4971 18.9259 20.9879 18.8246C20.4787 18.7233 20.011 18.4733 19.6438 18.1062C19.2767 17.739 19.0267 17.2713 18.9254 16.7621C18.8242 16.2529 18.8761 15.7251 19.0748 15.2455C19.2735 14.7658 19.61 14.3558 20.0416 14.0674ZM32 13.625C31.4808 13.625 30.9733 13.779 30.5416 14.0674C30.1099 14.3558 29.7735 14.7658 29.5748 15.2455C29.3761 15.7251 29.3242 16.2529 29.4254 16.7621C29.5267 17.2713 29.7767 17.739 30.1438 18.1062C30.511 18.4733 30.9787 18.7233 31.4879 18.8246C31.9971 18.9258 32.5249 18.8739 33.0045 18.6752C33.4842 18.4765 33.8942 18.1401 34.1826 17.7084C34.4711 17.2767 34.625 16.7692 34.625 16.25C34.625 15.5538 34.3484 14.8861 33.8562 14.3938C33.3639 13.9016 32.6962 13.625 32 13.625ZM3.125 29.375H39.875V32H3.125V29.375ZM3.125 34.625H39.875V37.25H3.125V34.625ZM11 13.625C10.4808 13.625 9.97331 13.779 9.54163 14.0674C9.10995 14.3558 8.7735 14.7658 8.57482 15.2455C8.37614 15.7251 8.32415 16.2529 8.42544 16.7621C8.52673 17.2713 8.77673 17.739 9.14385 18.1062C9.51096 18.4733 9.97869 18.7233 10.4879 18.8246C10.9971 18.9258 11.5249 18.8739 12.0045 18.6752C12.4842 18.4765 12.8942 18.1401 13.1826 17.7084C13.471 17.2767 13.625 16.7692 13.625 16.25C13.625 15.5538 13.3484 14.8861 12.8562 14.3938C12.3639 13.9016 11.6962 13.625 11 13.625Z"/>
  </mask>
  <path d="M37.25 26.75V29.2L37.2533 29.2L37.25 26.75ZM5.75 26.75L5.74378 29.2H5.75V26.75ZM39.1051 25.9801L40.8375 27.7125L40.8375 27.7125L39.1051 25.9801ZM39.875 24.125L42.325 24.1283V24.125H39.875ZM39.875 8.375H42.325L42.325 8.36878L39.875 8.375ZM39.1042 6.5208L37.3718 8.25321V8.25321L39.1042 6.5208ZM37.25 5.75L37.2562 3.3H37.25V5.75ZM5.75 5.75V3.29999L5.74378 3.30001L5.75 5.75ZM3.8958 6.5208L5.62821 8.25321L5.62821 8.25321L3.8958 6.5208ZM3.125 8.375L0.675 8.36878V8.375H3.125ZM3.125 24.125H0.674992L0.675008 24.1312L3.125 24.125ZM3.8958 25.9792L2.16338 27.7116L2.16339 27.7116L3.8958 25.9792ZM37.25 8.375H39.7V5.925H37.25V8.375ZM5.75 8.375V5.925H3.3V8.375H5.75ZM37.25 24.125V26.575H39.7V24.125H37.25ZM5.75 24.125H3.3V26.575H5.75V24.125ZM21.5 21.5V23.95L21.5028 23.95L21.5 21.5ZM25.2106 19.9606L23.4782 18.2282L23.4782 18.2282L25.2106 19.9606ZM26.75 16.25L29.2 16.2528V16.25H26.75ZM25.8652 13.3333L27.9023 11.9721V11.9721L25.8652 13.3333ZM23.5091 11.3996L24.4467 9.13613L24.4467 9.13613L23.5091 11.3996ZM17.7877 12.5377L19.5201 14.2701V14.2701L17.7877 12.5377ZM16.3509 15.2258L18.7538 15.7038L16.3509 15.2258ZM16.6496 18.2591L14.3861 19.1967L14.3861 19.1967L16.6496 18.2591ZM21.5 13.625L21.5025 11.175H21.5V13.625ZM23.3554 14.3946L25.0878 12.6622L25.0878 12.6622L23.3554 14.3946ZM24.125 16.25H26.575L26.575 16.2476L24.125 16.25ZM23.6826 17.7084L21.6455 16.3472L21.6455 16.3472L23.6826 17.7084ZM22.5045 18.6752L23.4421 20.9387L23.4421 20.9387L22.5045 18.6752ZM20.9879 18.8246L21.4659 16.4216V16.4216L20.9879 18.8246ZM19.6438 18.1062L21.3763 16.3737L21.3763 16.3737L19.6438 18.1062ZM19.0748 15.2455L21.3383 16.183L21.3383 16.183L19.0748 15.2455ZM30.5416 14.0674L31.9028 16.1045L31.9028 16.1045L30.5416 14.0674ZM29.5748 15.2455L31.8383 16.183L31.8383 16.183L29.5748 15.2455ZM33.0045 18.6752L32.067 16.4117L32.067 16.4117L33.0045 18.6752ZM34.1826 17.7084L32.1455 16.3472L32.1455 16.3472L34.1826 17.7084ZM33.8562 14.3938L35.5886 12.6614L35.5886 12.6614L33.8562 14.3938ZM39.875 29.375H42.325V26.925H39.875V29.375ZM3.125 29.375V26.925H0.675V29.375H3.125ZM39.875 32V34.45H42.325V32H39.875ZM3.125 32H0.675V34.45H3.125V32ZM39.875 34.625H42.325V32.175H39.875V34.625ZM3.125 34.625V32.175H0.675V34.625H3.125ZM39.875 37.25V39.7H42.325V37.25H39.875ZM3.125 37.25H0.675V39.7H3.125V37.25ZM8.57482 15.2455L6.31131 14.3079L6.31131 14.3079L8.57482 15.2455ZM12.0045 18.6752L11.067 16.4117L11.067 16.4117L12.0045 18.6752ZM12.8562 14.3938L11.1237 16.1263L11.1237 16.1263L12.8562 14.3938ZM37.25 24.3H5.75V29.2H37.25V24.3ZM37.3727 24.2477C37.3393 24.2811 37.294 24.2999 37.2467 24.3L37.2533 29.2C38.5978 29.1982 39.8868 28.6633 40.8375 27.7125L37.3727 24.2477ZM37.425 24.1217C37.4249 24.169 37.4061 24.2143 37.3727 24.2477L40.8375 27.7125C41.7883 26.7618 42.3232 25.4728 42.325 24.1283L37.425 24.1217ZM37.425 8.375V24.125H42.325V8.375H37.425ZM37.3718 8.25321C37.4058 8.28717 37.4249 8.3332 37.425 8.38122L42.325 8.36878C42.3216 7.0255 41.7865 5.73822 40.8366 4.78838L37.3718 8.25321ZM37.2438 8.19999C37.2918 8.20011 37.3378 8.21925 37.3718 8.25321L40.8366 4.78838C39.8868 3.83855 38.5995 3.30342 37.2562 3.30001L37.2438 8.19999ZM5.75 8.2H37.25V3.3H5.75V8.2ZM5.62821 8.25321C5.66217 8.21925 5.7082 8.20011 5.75622 8.19999L5.74378 3.30001C4.4005 3.30342 3.11323 3.83854 2.16338 4.78839L5.62821 8.25321ZM5.57499 8.38122C5.57511 8.3332 5.59425 8.28717 5.62821 8.25321L2.16339 4.78839C1.21355 5.73822 0.67842 7.0255 0.675008 8.36878L5.57499 8.38122ZM5.575 24.125V8.375H0.675V24.125H5.575ZM5.62821 24.2468C5.59425 24.2128 5.57511 24.1668 5.57499 24.1188L0.675008 24.1312C0.67842 25.4745 1.21355 26.7618 2.16338 27.7116L5.62821 24.2468ZM5.75622 24.3C5.7082 24.2999 5.66217 24.2808 5.62821 24.2468L2.16339 27.7116C3.11322 28.6614 4.4005 29.1966 5.74378 29.2L5.75622 24.3ZM37.25 5.925H5.75V10.825H37.25V5.925ZM39.7 24.125V8.375H34.8V24.125H39.7ZM5.75 26.575H37.25V21.675H5.75V26.575ZM3.3 8.375V24.125H8.2V8.375H3.3ZM21.5 19.05C20.9462 19.05 20.4049 18.8858 19.9444 18.5781L17.2221 22.6523C18.4884 23.4984 19.9771 23.95 21.5 23.95V19.05ZM23.4782 18.2282C22.9527 18.7536 22.2403 19.0492 21.4973 19.05L21.5028 23.95C23.5435 23.9477 25.5 23.136 26.943 21.693L23.4782 18.2282ZM24.3 16.2473C24.2992 16.9903 24.0036 17.7027 23.4782 18.2282L26.943 21.693C28.386 20.25 29.1977 18.2935 29.2 16.2528L24.3 16.2473ZM23.8281 14.6944C24.1358 15.1549 24.3 15.6962 24.3 16.25H29.2C29.2 14.7271 28.7484 13.2384 27.9023 11.9721L23.8281 14.6944ZM22.5715 13.6631C23.0831 13.8751 23.5205 14.2339 23.8281 14.6944L27.9023 11.9721C27.0562 10.7059 25.8537 9.71893 24.4467 9.13613L22.5715 13.6631ZM20.9538 13.5038C21.4969 13.3958 22.0599 13.4512 22.5715 13.6631L24.4467 9.13613C23.0397 8.55334 21.4915 8.40085 19.9978 8.69796L20.9538 13.5038ZM19.5201 14.2701C19.9117 13.8785 20.4106 13.6118 20.9538 13.5038L19.9978 8.69796C18.5042 8.99506 17.1321 9.72842 16.0553 10.8053L19.5201 14.2701ZM18.7538 15.7038C18.8618 15.1606 19.1285 14.6617 19.5201 14.2701L16.0553 10.8053C14.9784 11.8821 14.2451 13.2542 13.948 14.7478L18.7538 15.7038ZM18.9131 17.3215C18.7012 16.8099 18.6458 16.2469 18.7538 15.7038L13.948 14.7478C13.6508 16.2415 13.8033 17.7897 14.3861 19.1967L18.9131 17.3215ZM19.9444 18.5781C19.4839 18.2704 19.1251 17.8331 18.9131 17.3215L14.3861 19.1967C14.9689 20.6037 15.9559 21.8062 17.2221 22.6523L19.9444 18.5781ZM21.5 11.175C20.4963 11.175 19.5151 11.4726 18.6805 12.0303L21.4028 16.1045C21.4316 16.0853 21.4654 16.075 21.5 16.075V11.175ZM25.0878 12.6622C24.1368 11.7112 22.8474 11.1763 21.5025 11.175L21.4976 16.075C21.5446 16.075 21.5897 16.0938 21.623 16.127L25.0878 12.6622ZM26.575 16.2476C26.5737 14.9026 26.0388 13.6132 25.0878 12.6622L21.623 16.127C21.6562 16.1603 21.675 16.2054 21.675 16.2524L26.575 16.2476ZM25.7197 19.0695C26.2774 18.2349 26.575 17.2537 26.575 16.25H21.675C21.675 16.2846 21.6647 16.3184 21.6455 16.3472L25.7197 19.0695ZM23.4421 20.9387C24.3695 20.5546 25.1621 19.9041 25.7197 19.0695L21.6455 16.3472C21.6263 16.376 21.5989 16.3984 21.567 16.4117L23.4421 20.9387ZM20.5099 21.2275C21.4944 21.4233 22.5148 21.3228 23.4421 20.9387L21.567 16.4117C21.535 16.4249 21.4998 16.4284 21.4659 16.4216L20.5099 21.2275ZM17.9114 19.8386C18.6212 20.5483 19.5255 21.0317 20.5099 21.2275L21.4659 16.4216C21.4319 16.4149 21.4007 16.3982 21.3763 16.3737L17.9114 19.8386ZM16.5225 17.2401C16.7183 18.2245 17.2017 19.1288 17.9114 19.8386L21.3763 16.3737C21.3518 16.3493 21.3351 16.3181 21.3284 16.2841L16.5225 17.2401ZM16.8113 14.3079C16.4272 15.2352 16.3267 16.2556 16.5225 17.2401L21.3284 16.2841C21.3216 16.2502 21.3251 16.215 21.3383 16.183L16.8113 14.3079ZM18.6805 12.0303C17.8459 12.5879 17.1954 13.3805 16.8113 14.3079L21.3383 16.183C21.3516 16.1511 21.374 16.1237 21.4028 16.1045L18.6805 12.0303ZM31.9028 16.1045C31.9316 16.0853 31.9654 16.075 32 16.075V11.175C30.9963 11.175 30.0151 11.4726 29.1805 12.0303L31.9028 16.1045ZM31.8383 16.183C31.8516 16.1511 31.874 16.1237 31.9028 16.1045L29.1805 12.0303C28.3459 12.5879 27.6954 13.3805 27.3113 14.3079L31.8383 16.183ZM31.8284 16.2841C31.8216 16.2502 31.8251 16.215 31.8383 16.183L27.3113 14.3079C26.9272 15.2352 26.8267 16.2556 27.0225 17.2401L31.8284 16.2841ZM31.8763 16.3737C31.8518 16.3493 31.8351 16.3181 31.8284 16.2841L27.0225 17.2401C27.2183 18.2245 27.7017 19.1288 28.4114 19.8386L31.8763 16.3737ZM31.9659 16.4216C31.9319 16.4149 31.9007 16.3982 31.8763 16.3737L28.4114 19.8386C29.1212 20.5483 30.0255 21.0317 31.0099 21.2275L31.9659 16.4216ZM32.067 16.4117C32.035 16.4249 31.9998 16.4284 31.9659 16.4216L31.0099 21.2275C31.9944 21.4233 33.0148 21.3228 33.9421 20.9387L32.067 16.4117ZM32.1455 16.3472C32.1263 16.376 32.0989 16.3984 32.067 16.4117L33.9421 20.9387C34.8695 20.5546 35.6621 19.9041 36.2197 19.0695L32.1455 16.3472ZM32.175 16.25C32.175 16.2846 32.1647 16.3184 32.1455 16.3472L36.2197 19.0695C36.7774 18.2349 37.075 17.2537 37.075 16.25H32.175ZM32.1237 16.1263C32.1566 16.1591 32.175 16.2036 32.175 16.25H37.075C37.075 14.904 36.5403 13.6132 35.5886 12.6614L32.1237 16.1263ZM32 16.075C32.0464 16.075 32.0909 16.0934 32.1238 16.1263L35.5886 12.6614C34.6368 11.7097 33.346 11.175 32 11.175V16.075ZM39.875 26.925H3.125V31.825H39.875V26.925ZM42.325 32V29.375H37.425V32H42.325ZM3.125 34.45H39.875V29.55H3.125V34.45ZM0.675 29.375V32H5.575V29.375H0.675ZM39.875 32.175H3.125V37.075H39.875V32.175ZM42.325 37.25V34.625H37.425V37.25H42.325ZM3.125 39.7H39.875V34.8H3.125V39.7ZM0.675 34.625V37.25H5.575V34.625H0.675ZM10.9028 16.1045C10.9316 16.0853 10.9654 16.075 11 16.075V11.175C9.99626 11.175 9.01506 11.4726 8.18048 12.0303L10.9028 16.1045ZM10.8383 16.183C10.8516 16.1511 10.874 16.1237 10.9028 16.1045L8.18048 12.0303C7.3459 12.5879 6.69543 13.3805 6.31131 14.3079L10.8383 16.183ZM10.8284 16.2841C10.8216 16.2502 10.8251 16.215 10.8383 16.183L6.31131 14.3079C5.9272 15.2352 5.8267 16.2556 6.02252 17.2401L10.8284 16.2841ZM10.8763 16.3737C10.8518 16.3493 10.8351 16.3181 10.8284 16.2841L6.02252 17.2401C6.21834 18.2245 6.70168 19.1288 7.41143 19.8386L10.8763 16.3737ZM10.9659 16.4216C10.9319 16.4149 10.9007 16.3982 10.8763 16.3737L7.41143 19.8386C8.12118 20.5483 9.02546 21.0317 10.0099 21.2275L10.9659 16.4216ZM11.067 16.4117C11.035 16.4249 10.9998 16.4284 10.9659 16.4216L10.0099 21.2275C10.9944 21.4233 12.0148 21.3228 12.9421 20.9387L11.067 16.4117ZM11.1455 16.3472C11.1263 16.376 11.0989 16.3984 11.067 16.4117L12.9421 20.9387C13.8695 20.5546 14.6621 19.9041 15.2197 19.0695L11.1455 16.3472ZM11.175 16.25C11.175 16.2846 11.1647 16.3184 11.1455 16.3472L15.2197 19.0695C15.7774 18.2349 16.075 17.2537 16.075 16.25H11.175ZM11.1237 16.1263C11.1566 16.1591 11.175 16.2036 11.175 16.25H16.075C16.075 14.904 15.5403 13.6132 14.5886 12.6614L11.1237 16.1263ZM11 16.075C11.0464 16.075 11.0909 16.0934 11.1237 16.1263L14.5886 12.6614C13.6368 11.7097 12.346 11.175 11 11.175V16.075Z" fill="#24A7FF" mask="url(#path-1-inside-1_1463_343)"/>
</svg>