<svg xmlns="http://www.w3.org/2000/svg" width="43" height="43" viewBox="0 0 43 43" fill="none">
  <mask id="path-1-inside-1_1463_384" fill="white">
    <path fill-rule="evenodd" clip-rule="evenodd" d="M29.1611 4.60379C30.333 3.64709 31.7995 3.12469 33.3124 3.125C34.5541 3.12525 35.7702 3.47776 36.8195 4.14158C37.8688 4.8054 38.7083 5.75328 39.2404 6.87515C39.7725 7.99702 39.9754 9.24683 39.8256 10.4794C39.6758 11.712 39.1793 12.8768 38.3939 13.8385C37.6085 14.8002 36.5664 15.5194 35.3886 15.9125C34.2108 16.3056 32.9457 16.3564 31.7401 16.0592C30.5345 15.762 29.438 15.1288 28.5779 14.2333C27.7178 13.3377 27.1295 12.2166 26.8811 11H26.7499C25.7056 11 24.7041 11.4148 23.9657 12.1533C23.2272 12.8917 22.8124 13.8932 22.8124 14.9375H20.1874C20.1874 13.197 20.8788 11.5278 22.1095 10.2971C23.3402 9.0664 25.0094 8.375 26.7499 8.375H26.8811C27.1837 6.89271 27.9891 5.56048 29.1611 4.60379ZM31.1248 12.9614C31.7723 13.3941 32.5336 13.625 33.3124 13.625C34.3567 13.625 35.3582 13.2102 36.0966 12.4717C36.835 11.7333 37.2499 10.7318 37.2499 9.6875C37.2499 8.90874 37.019 8.14746 36.5863 7.49994C36.1536 6.85242 35.5387 6.34774 34.8192 6.04973C34.0997 5.7517 33.308 5.67373 32.5442 5.82566C31.7804 5.97759 31.0788 6.3526 30.5282 6.90327C29.9775 7.45394 29.6025 8.15553 29.4505 8.91933C29.2986 9.68313 29.3766 10.4748 29.6746 11.1943C29.9726 11.9138 30.4773 12.5288 31.1248 12.9614ZM22.8124 17.5625H20.1874V25.4375H22.8124V17.5625ZM20.1874 28.0625C20.1874 29.1068 19.7725 30.1083 19.0341 30.8467C18.2957 31.5852 17.2942 32 16.2499 32H16.1186C15.7934 30.4066 14.888 28.9907 13.5782 28.0268C12.2683 27.063 10.6472 26.6198 9.02913 26.7832C7.41108 26.9467 5.91135 27.7051 4.82071 28.9115C3.73008 30.1179 3.12622 31.6862 3.12622 33.3125C3.12622 34.9388 3.73008 36.5072 4.82071 37.7135C5.91135 38.9199 7.41108 39.6783 9.02913 39.8418C10.6472 40.0052 12.2683 39.5621 13.5782 38.5982C14.888 37.6343 15.7934 36.2184 16.1186 34.625H16.2499C17.9904 34.625 19.6596 33.9336 20.8903 32.7029C22.121 31.4722 22.8124 29.803 22.8124 28.0625H20.1874ZM9.68738 37.25C8.90862 37.25 8.14734 37.0191 7.49982 36.5864C6.8523 36.1538 6.34763 35.5388 6.04961 34.8193C5.75159 34.0998 5.67361 33.3081 5.82554 32.5443C5.97747 31.7805 6.35248 31.0789 6.90315 30.5283C7.45382 29.9776 8.15541 29.6026 8.91921 29.4507C9.68301 29.2987 10.4747 29.3767 11.1942 29.6747C11.9137 29.9728 12.5286 30.4774 12.9613 31.125C13.394 31.7725 13.6249 32.5337 13.6249 33.3125C13.6249 34.3568 13.21 35.3583 12.4716 36.0967C11.7332 36.8352 10.7317 37.25 9.68738 37.25Z"/>
  </mask>
  <path d="M33.3124 3.125L33.3129 0.675L33.3124 3.125ZM29.1611 4.60379L27.6118 2.70587V2.70587L29.1611 4.60379ZM36.8195 4.14158L38.1293 2.0711V2.0711L36.8195 4.14158ZM39.2404 6.87515L41.454 5.82521L41.454 5.8252L39.2404 6.87515ZM39.8256 10.4794L42.2577 10.7751L42.2577 10.7751L39.8256 10.4794ZM35.3886 15.9125L36.1642 18.2365H36.1642L35.3886 15.9125ZM31.7401 16.0592L31.1536 18.438H31.1536L31.7401 16.0592ZM28.5779 14.2333L30.345 12.5362L30.345 12.5362L28.5779 14.2333ZM26.8811 11L29.2816 10.51L28.8816 8.55H26.8811V11ZM23.9657 12.1533L22.2332 10.4209V10.4209L23.9657 12.1533ZM22.8124 14.9375V17.3875H25.2624V14.9375H22.8124ZM20.1874 14.9375H17.7374V17.3875H20.1874V14.9375ZM22.1095 10.2971L23.8419 12.0295L22.1095 10.2971ZM26.8811 8.375V10.825H28.8816L29.2816 8.865L26.8811 8.375ZM36.0966 12.4717L34.3642 10.7393L34.3642 10.7393L36.0966 12.4717ZM34.8192 6.04973L33.8816 8.31323L33.8816 8.31323L34.8192 6.04973ZM32.5442 5.82566L33.0222 8.22858H33.0222L32.5442 5.82566ZM30.5282 6.90327L28.7957 5.17085L28.7957 5.17086L30.5282 6.90327ZM29.4505 8.91933L27.0476 8.44136V8.44136L29.4505 8.91933ZM20.1874 17.5625V15.1125H17.7374V17.5625H20.1874ZM22.8124 17.5625H25.2624V15.1125H22.8124V17.5625ZM20.1874 25.4375H17.7374V27.8875H20.1874V25.4375ZM22.8124 25.4375V27.8875H25.2624V25.4375H22.8124ZM20.1874 28.0625V25.6125H17.7374V28.0625H20.1874ZM16.1186 32L13.7181 32.49L14.1182 34.45H16.1186V32ZM13.5782 28.0268L15.0302 26.0535L15.0302 26.0535L13.5782 28.0268ZM9.02913 26.7832L9.27538 29.2208H9.27538L9.02913 26.7832ZM4.82071 28.9115L3.00333 27.2685H3.00333L4.82071 28.9115ZM4.82071 37.7135L3.00333 39.3566L3.00333 39.3566L4.82071 37.7135ZM9.02913 39.8418L8.78288 42.2794L8.78288 42.2794L9.02913 39.8418ZM13.5782 38.5982L15.0302 40.5715L15.0302 40.5715L13.5782 38.5982ZM16.1186 34.625V32.175H14.1182L13.7181 34.135L16.1186 34.625ZM22.8124 28.0625H25.2624V25.6125H22.8124V28.0625ZM7.49982 36.5864L8.86097 34.5493L8.86097 34.5493L7.49982 36.5864ZM6.04961 34.8193L8.31311 33.8818L8.31311 33.8818L6.04961 34.8193ZM8.91921 29.4507L8.44125 27.0477L8.44124 27.0477L8.91921 29.4507ZM11.1942 29.6747L10.2566 31.9382L10.2566 31.9382L11.1942 29.6747ZM12.9613 31.125L10.9242 32.4861L10.9242 32.4861L12.9613 31.125ZM12.4716 36.0967L10.7392 34.3643L10.7392 34.3643L12.4716 36.0967ZM33.3129 0.675C31.2352 0.674576 29.2212 1.39201 27.6118 2.70587L30.7104 6.50171C31.4448 5.90218 32.3638 5.57481 33.3119 5.575L33.3129 0.675ZM38.1293 2.0711C36.6882 1.15946 35.0181 0.675348 33.3129 0.675L33.3119 5.575C34.09 5.57516 34.8521 5.79606 35.5097 6.21205L38.1293 2.0711ZM41.454 5.8252C40.7232 4.28451 39.5704 2.98275 38.1293 2.0711L35.5097 6.21205C36.1672 6.62805 36.6933 7.22206 37.0268 7.9251L41.454 5.8252ZM42.2577 10.7751C42.4635 9.08231 42.1848 7.36591 41.454 5.82521L37.0268 7.92509C37.3602 8.62813 37.4874 9.41135 37.3935 10.1838L42.2577 10.7751ZM40.2915 15.3882C41.3701 14.0675 42.0519 12.4678 42.2577 10.7751L37.3935 10.1838C37.2996 10.9562 36.9885 11.6861 36.4963 12.2888L40.2915 15.3882ZM36.1642 18.2365C37.7817 17.6966 39.2129 16.709 40.2915 15.3882L36.4963 12.2888C36.0041 12.8915 35.3511 13.3421 34.613 13.5885L36.1642 18.2365ZM31.1536 18.438C32.8092 18.8462 34.5467 18.7763 36.1642 18.2365L34.613 13.5885C33.8749 13.8348 33.0821 13.8667 32.3266 13.6804L31.1536 18.438ZM26.8109 15.9304C27.9921 17.1602 29.498 18.0298 31.1536 18.438L32.3266 13.6804C31.5711 13.4942 30.884 13.0974 30.345 12.5362L26.8109 15.9304ZM24.4806 11.49C24.8217 13.1608 25.6297 14.7005 26.8109 15.9304L30.345 12.5362C29.806 11.975 29.4373 11.2724 29.2816 10.51L24.4806 11.49ZM26.7499 13.45H26.8811V8.55H26.7499V13.45ZM25.6981 13.8857C25.977 13.6067 26.3554 13.45 26.7499 13.45V8.55C25.0558 8.55 23.4311 9.22297 22.2332 10.4209L25.6981 13.8857ZM25.2624 14.9375C25.2624 14.543 25.4191 14.1646 25.6981 13.8857L22.2332 10.4209C21.0354 11.6187 20.3624 13.2434 20.3624 14.9375H25.2624ZM20.1874 17.3875H22.8124V12.4875H20.1874V17.3875ZM20.3771 8.5647C18.6869 10.2549 17.7374 12.5472 17.7374 14.9375H22.6374C22.6374 13.8468 23.0707 12.8008 23.8419 12.0295L20.3771 8.5647ZM26.7499 5.925C24.3596 5.925 22.0673 6.87453 20.3771 8.5647L23.8419 12.0295C24.6132 11.2583 25.6592 10.825 26.7499 10.825V5.925ZM26.8811 5.925H26.7499V10.825H26.8811V5.925ZM27.6118 2.70587C26.0023 4.01973 24.8962 5.84932 24.4806 7.885L29.2816 8.865C29.4712 7.9361 29.976 7.10123 30.7104 6.50171L27.6118 2.70587ZM33.3124 11.175C33.0182 11.175 32.7306 11.0878 32.486 10.9243L29.7637 14.9985C30.8141 15.7004 32.0491 16.075 33.3124 16.075V11.175ZM34.3642 10.7393C34.0852 11.0183 33.7069 11.175 33.3124 11.175V16.075C35.0065 16.075 36.6311 15.402 37.829 14.2041L34.3642 10.7393ZM34.7999 9.6875C34.7999 10.082 34.6432 10.4604 34.3642 10.7393L37.829 14.2041C39.0269 13.0063 39.6999 11.3816 39.6999 9.6875H34.7999ZM34.5492 8.86109C34.7126 9.1057 34.7999 9.39329 34.7999 9.6875H39.6999C39.6999 8.42418 39.3253 7.18922 38.6234 6.13879L34.5492 8.86109ZM33.8816 8.31323C34.1534 8.42582 34.3857 8.61647 34.5492 8.86109L38.6234 6.13879C37.9215 5.08838 36.9239 4.26967 35.7568 3.78622L33.8816 8.31323ZM33.0222 8.22858C33.3107 8.17119 33.6098 8.20064 33.8816 8.31323L35.7568 3.78622C34.5896 3.30276 33.3053 3.17627 32.0662 3.42273L33.0222 8.22858ZM32.2606 8.63568C32.4686 8.42765 32.7336 8.28598 33.0222 8.22858L32.0662 3.42273C30.8272 3.6692 29.6891 4.27755 28.7957 5.17085L32.2606 8.63568ZM31.8535 9.39731C31.9109 9.10876 32.0525 8.84371 32.2606 8.63568L28.7957 5.17086C27.9024 6.06417 27.2941 7.20231 27.0476 8.44136L31.8535 9.39731ZM31.9381 10.2567C31.8255 9.98494 31.7961 9.68585 31.8535 9.39731L27.0476 8.44136C26.8012 9.68042 26.9277 10.9647 27.4111 12.1319L31.9381 10.2567ZM32.486 10.9243C32.2414 10.7609 32.0507 10.5285 31.9381 10.2567L27.4111 12.1319C27.8946 13.2991 28.7133 14.2966 29.7637 14.9985L32.486 10.9243ZM20.1874 20.0125H22.8124V15.1125H20.1874V20.0125ZM22.6374 25.4375V17.5625H17.7374V25.4375H22.6374ZM22.8124 22.9875H20.1874V27.8875H22.8124V22.9875ZM20.3624 17.5625V25.4375H25.2624V17.5625H20.3624ZM20.7665 32.5792C21.9644 31.3813 22.6374 29.7566 22.6374 28.0625H17.7374C17.7374 28.457 17.5807 28.8354 17.3017 29.1143L20.7665 32.5792ZM16.2499 34.45C17.944 34.45 19.5686 33.777 20.7665 32.5792L17.3017 29.1143C17.0227 29.3933 16.6444 29.55 16.2499 29.55V34.45ZM16.1186 34.45H16.2499V29.55H16.1186V34.45ZM12.1261 30.0001C12.947 30.6042 13.5143 31.4915 13.7181 32.49L18.5191 31.51C18.0724 29.3217 16.8291 27.3772 15.0302 26.0535L12.1261 30.0001ZM9.27538 29.2208C10.2894 29.1184 11.3053 29.3961 12.1261 30.0001L15.0302 26.0535C13.2313 24.7298 11.005 24.1212 8.78288 24.3457L9.27538 29.2208ZM6.6381 30.5545C7.32157 29.7986 8.2614 29.3233 9.27538 29.2208L8.78288 24.3457C6.56076 24.5701 4.50114 25.6117 3.00333 27.2685L6.6381 30.5545ZM5.57622 33.3125C5.57622 32.2934 5.95464 31.3105 6.6381 30.5545L3.00333 27.2685C1.50552 28.9252 0.676221 31.0791 0.676221 33.3125H5.57622ZM6.6381 36.0705C5.95464 35.3145 5.57622 34.3317 5.57622 33.3125H0.676221C0.676221 35.5459 1.50552 37.6998 3.00333 39.3566L6.6381 36.0705ZM9.27538 37.4042C8.2614 37.3018 7.32157 36.8265 6.6381 36.0705L3.00333 39.3566C4.50114 41.0133 6.56076 42.0549 8.78288 42.2794L9.27538 37.4042ZM12.1261 36.6249C11.3053 37.2289 10.2894 37.5066 9.27538 37.4042L8.78288 42.2794C11.005 42.5039 13.2313 41.8952 15.0302 40.5715L12.1261 36.6249ZM13.7181 34.135C13.5143 35.1336 12.947 36.0209 12.1261 36.6249L15.0302 40.5715C16.8291 39.2478 18.0724 37.3033 18.5191 35.115L13.7181 34.135ZM16.2499 32.175H16.1186V37.075H16.2499V32.175ZM19.1579 30.9705C18.3866 31.7417 17.3406 32.175 16.2499 32.175V37.075C18.6401 37.075 20.9325 36.1255 22.6227 34.4353L19.1579 30.9705ZM20.3624 28.0625C20.3624 29.1532 19.9291 30.1992 19.1579 30.9705L22.6227 34.4353C24.3129 32.7451 25.2624 30.4528 25.2624 28.0625H20.3624ZM20.1874 30.5125H22.8124V25.6125H20.1874V30.5125ZM6.13867 38.6235C7.1891 39.3254 8.42406 39.7 9.68738 39.7V34.8C9.39317 34.8 9.10558 34.7128 8.86097 34.5493L6.13867 38.6235ZM3.7861 35.7569C4.26956 36.9241 5.08826 37.9217 6.13867 38.6235L8.86097 34.5493C8.61635 34.3859 8.4257 34.1536 8.31311 33.8818L3.7861 35.7569ZM3.42262 32.0664C3.17615 33.3054 3.30265 34.5897 3.7861 35.7569L8.31311 33.8818C8.20053 33.61 8.17107 33.3109 8.22846 33.0223L3.42262 32.0664ZM5.17074 28.7959C4.27743 29.6892 3.66908 30.8273 3.42262 32.0664L8.22846 33.0223C8.28586 32.7338 8.42753 32.4687 8.63556 32.2607L5.17074 28.7959ZM8.44124 27.0477C7.20219 27.2942 6.06404 27.9026 5.17074 28.7959L8.63556 32.2607C8.84359 32.0527 9.10864 31.911 9.39719 31.8536L8.44124 27.0477ZM12.1318 27.4112C10.9646 26.9278 9.68029 26.8013 8.44125 27.0477L9.39718 31.8536C9.68573 31.7962 9.98482 31.8257 10.2566 31.9382L12.1318 27.4112ZM14.9984 29.7638C14.2965 28.7134 13.2989 27.8947 12.1318 27.4112L10.2566 31.9382C10.5284 32.0508 10.7607 32.2415 10.9242 32.4861L14.9984 29.7638ZM16.0749 33.3125C16.0749 32.0492 15.7003 30.8142 14.9984 29.7638L10.9242 32.4861C11.0876 32.7307 11.1749 33.0183 11.1749 33.3125H16.0749ZM14.204 37.8292C15.4019 36.6313 16.0749 35.0066 16.0749 33.3125H11.1749C11.1749 33.707 11.0182 34.0854 10.7392 34.3643L14.204 37.8292ZM9.68738 39.7C11.3814 39.7 13.0061 39.0271 14.204 37.8292L10.7392 34.3643C10.4602 34.6433 10.0819 34.8 9.68738 34.8V39.7Z" fill="#24A7FF" mask="url(#path-1-inside-1_1463_384)"/>
</svg>