<svg xmlns="http://www.w3.org/2000/svg" width="140" height="35" viewBox="0 0 140 35" fill="none">
  <path d="M52.3474 14.0444C52.3629 14.107 52.3474 14.1459 52.3005 14.1614L49.6913 15.4018L49.7148 15.3902C49.6212 15.4213 49.5704 15.4332 49.5626 15.4252C49.2193 14.8794 48.806 14.4658 48.3223 14.1849C47.8385 13.9041 47.273 13.7636 46.6256 13.7636C46.0093 13.7636 45.4673 13.8923 44.9993 14.1498C44.5313 14.4072 44.1217 14.7817 43.7708 15.2731C43.4743 15.7176 43.2481 16.2307 43.0922 16.8117C42.936 17.3928 42.8581 18.0268 42.8581 18.713C42.8581 19.4697 42.9379 20.1463 43.098 20.7431C43.2578 21.34 43.5094 21.8645 43.8527 22.317C44.2037 22.7615 44.615 23.0971 45.0871 23.3232C45.5589 23.5496 46.0951 23.6625 46.696 23.6625C47.3354 23.6625 47.9167 23.4988 48.4393 23.1711C48.9618 22.8435 49.4142 22.352 49.7965 21.6969C49.7965 21.6891 49.8239 21.6853 49.8785 21.6853L52.2888 23.1946C52.2966 23.2025 52.2966 23.218 52.2888 23.2414C51.7038 24.3804 50.9334 25.2247 49.9779 25.7746C49.0222 26.3246 47.8854 26.5995 46.5671 26.5995C45.5686 26.5995 44.6559 26.422 43.8291 26.0672C43.0023 25.7124 42.2807 25.2073 41.6645 24.5519C41.056 23.8265 40.5822 22.9705 40.2429 21.9837C39.9036 20.997 39.7339 19.9068 39.7339 18.7133C39.7339 16.3499 40.3968 14.4426 41.723 12.9918C43.01 11.5488 44.6598 10.8271 46.6723 10.8271C49.3088 10.8271 51.1966 11.8997 52.3356 14.0448H52.3474V14.0444ZM52.3474 14.0444C52.3394 14.0367 52.3357 14.0289 52.3357 14.021L52.3474 14.0444Z" fill="#0A5CA0"/>
  <path d="M61.7951 11.1193C63.3318 11.1193 64.5721 11.5096 65.516 12.2893C66.0463 12.7263 66.4442 13.2353 66.7094 13.8163C66.9745 14.3974 67.1072 15.0702 67.1072 15.8346C67.1072 16.7083 66.9745 17.4747 66.7094 18.1337C66.4442 18.7929 66.0425 19.333 65.5043 19.7543C64.5839 20.5109 63.2696 20.8892 61.5612 20.8892H58.0158V26.2598C58.0158 26.3224 57.9883 26.3534 57.9338 26.3534H55.0086C54.9619 26.3534 54.9385 26.3224 54.9385 26.2598V12.8976C54.9385 12.3126 55.0865 11.8719 55.3832 11.5755C55.6717 11.2713 56.0812 11.1191 56.6117 11.1191L61.7951 11.1193ZM61.9122 14.0213L58.0158 14.0329V18.0229H61.7132C63.2109 18.0229 63.9598 17.3249 63.9598 15.9284C63.9598 14.6648 63.1952 14.0329 61.6665 14.0329L61.9122 14.0213Z" fill="#0A5CA0"/>
  <path d="M81.06 14.1032C81.06 14.1813 80.9935 14.2202 80.8612 14.2202H72.9045V16.8177H77.9007C78.0098 16.8177 78.0645 16.8685 78.0645 16.9699V19.7664C78.0645 19.821 77.9902 19.8483 77.8422 19.8483H72.9045V26.2603C72.9045 26.3229 72.877 26.3539 72.8225 26.3539H69.9324C69.8622 26.3539 69.8271 26.3229 69.8271 26.2603V12.9332C69.8271 11.7242 70.381 11.1196 71.4886 11.1196H80.8608C80.9934 11.1196 81.0596 11.1588 81.0596 11.2367V14.1032H81.06Z" fill="#0A5CA0"/>
  <path d="M87.7698 24.2357C87.7698 24.5791 87.7093 24.8949 87.5884 25.1835C87.4673 25.4722 87.3018 25.7217 87.0912 25.9324C86.8806 26.143 86.6291 26.3068 86.3365 26.4238C86.0439 26.5408 85.7261 26.5993 85.3829 26.5993C85.032 26.5993 84.7119 26.5408 84.4235 26.4238C84.1348 26.3068 83.8852 26.143 83.6748 25.9324C83.4641 25.7217 83.3004 25.4722 83.1834 25.1835C83.0663 24.8949 83.0078 24.5791 83.0078 24.2357C83.0078 23.8925 83.0663 23.5786 83.1834 23.2938C83.3004 23.0091 83.4641 22.7634 83.6748 22.5567C83.8854 22.3501 84.135 22.1881 84.4235 22.0711C84.7121 21.954 85.032 21.8955 85.3829 21.8955C85.7261 21.8955 86.044 21.954 86.3365 22.0711C86.6291 22.1881 86.8806 22.3501 87.0912 22.5567C87.3018 22.7634 87.4675 23.0091 87.5884 23.2938C87.7093 23.5786 87.7698 23.8925 87.7698 24.2357Z" fill="#0A5CA0"/>
  <path d="M101.816 14.0444C101.832 14.107 101.816 14.1459 101.769 14.1614L99.1599 15.4018L99.1834 15.3902C99.0898 15.4213 99.039 15.4332 99.0313 15.4252C98.6879 14.8794 98.2746 14.4658 97.7909 14.1849C97.3071 13.9041 96.7416 13.7636 96.0942 13.7636C95.4779 13.7636 94.9359 13.8923 94.4679 14.1498C93.9998 14.4072 93.5903 14.7817 93.2394 15.2731C92.9429 15.7176 92.7168 16.2307 92.5608 16.8117C92.4046 17.3928 92.3267 18.0268 92.3267 18.713C92.3267 19.4697 92.4066 20.1463 92.5666 20.7431C92.7265 21.34 92.978 21.8645 93.3213 22.317C93.6724 22.7615 94.0837 23.0971 94.5557 23.3232C95.0275 23.5496 95.5637 23.6625 96.1646 23.6625C96.8041 23.6625 97.3854 23.4988 97.908 23.1711C98.4304 22.8435 98.883 22.352 99.2652 21.6969C99.2652 21.6891 99.2925 21.6853 99.3471 21.6853L101.757 23.1946C101.765 23.2025 101.765 23.218 101.757 23.2414C101.172 24.3804 100.402 25.2247 99.4465 25.7746C98.4909 26.3246 97.354 26.5995 96.0357 26.5995C95.0372 26.5995 94.1246 26.422 93.2977 26.0672C92.4709 25.7124 91.7493 25.2073 91.1331 24.5519C90.5246 23.8265 90.0509 22.9705 89.7116 21.9837C89.3723 20.997 89.2025 19.9068 89.2025 18.7133C89.2025 16.3499 89.8654 14.4426 91.1916 12.9918C92.4786 11.5488 94.1284 10.8271 96.141 10.8271C98.7774 10.8271 100.665 11.8997 101.804 14.0448H101.816V14.0444ZM101.816 14.0444C101.808 14.0367 101.805 14.0289 101.805 14.021L101.816 14.0444Z" fill="#0A5CA0"/>
  <path d="M117.079 11.0726C117.142 11.0883 117.173 11.1311 117.173 11.2013V25.0198C117.173 25.917 116.775 26.4433 115.979 26.5995C115.862 26.6229 115.726 26.6345 115.57 26.6345C115.266 26.6345 114.965 26.5369 114.669 26.3419C114.372 26.147 114.111 25.9013 113.885 25.6048L108.795 18.21L108.807 18.2217L107.438 15.94L107.485 20.0001V26.26C107.485 26.3226 107.461 26.3536 107.414 26.3536H104.56C104.513 26.3536 104.489 26.3226 104.489 26.26V12.7224C104.489 12.2467 104.598 11.8585 104.817 11.5582C105.035 11.258 105.371 11.0648 105.823 10.979L106.993 11.0842C107.181 11.1623 107.344 11.248 107.485 11.3416C107.625 11.4352 107.75 11.56 107.859 11.7159L112.855 18.9354L112.844 18.9237L114.224 21.2288L114.166 17.1453V11.2013C114.166 11.1234 114.189 11.0842 114.236 11.0842H117.068L117.079 11.0726Z" fill="#0A5CA0"/>
  <path d="M126.995 11.1193C128.532 11.1193 129.772 11.5096 130.716 12.2893C131.246 12.7263 131.644 13.2353 131.909 13.8163C132.175 14.3974 132.307 15.0702 132.307 15.8346C132.307 16.7083 132.175 17.4747 131.909 18.1337C131.644 18.7929 131.242 19.333 130.704 19.7543C129.784 20.5109 128.47 20.8892 126.761 20.8892H123.216V26.2598C123.216 26.3224 123.188 26.3534 123.134 26.3534H120.209C120.162 26.3534 120.139 26.3224 120.139 26.2598V12.8976C120.139 12.3126 120.287 11.8719 120.583 11.5755C120.872 11.2713 121.281 11.1191 121.812 11.1191L126.995 11.1193ZM127.112 14.0213L123.216 14.0329V18.0229H126.913C128.411 18.0229 129.16 17.3249 129.16 15.9284C129.16 14.6648 128.395 14.0329 126.866 14.0329L127.112 14.0213Z" fill="#0A5CA0"/>
  <path d="M140 11.2717V21.6852C140 23.222 139.618 24.3727 138.853 25.1369C138.151 25.8859 136.95 26.3732 135.249 26.5995C135.195 26.615 135.156 26.572 135.132 26.4709L134.267 24.2711C134.235 24.1776 134.247 24.127 134.302 24.119C135.3 23.9084 135.987 23.6121 136.361 23.2298C136.72 22.8008 136.899 22.1222 136.899 21.1938V11.2717C136.899 11.147 136.946 11.0845 137.04 11.0845H139.883L140 11.2717Z" fill="#0A5CA0"/>
  <path d="M30.2206 12.3855L20.6053 9.54297L16.0287 25.0238C15.7393 26.003 14.7013 26.5673 13.722 26.2779L10.9452 25.4571L9.94197 28.8506C9.65255 29.8297 10.2168 30.8677 11.1961 31.1573L23.5882 34.8209C24.5673 35.1103 25.6054 34.5461 25.8949 33.5668L31.4747 14.6922C31.7641 13.7131 31.1999 12.6751 30.2206 12.3855Z" fill="#24A7FF"/>
  <path d="M17.8287 8.72223L20.6053 9.54307L21.6086 6.14954C21.898 5.17042 21.3338 4.13226 20.3545 3.84284L7.96255 0.179464C6.98326 -0.11013 5.94527 0.454253 5.65585 1.43337L0.0760061 20.3079C-0.213412 21.2871 0.350794 22.3252 1.33009 22.6146L10.9454 25.4572L15.522 9.97631C15.8114 8.99701 16.8494 8.43281 17.8287 8.72223Z" fill="#0A5CA0"/>
  <path d="M16.0288 25.0241L20.6053 9.54321L17.8287 8.72237C16.8496 8.43295 15.8114 8.99716 15.522 9.97645L10.9454 25.4573L13.7222 26.2782C14.7012 26.5676 15.7393 26.0032 16.0288 25.0241Z" fill="#76D8FF"/>
</svg>